<svg width="22" height="22" viewBox="0 0 22 22" fill="none" xmlns="http://www.w3.org/2000/svg">
<path d="M12.375 1.83334C12.375 2.24034 12.1981 2.60609 11.9167 2.85818V4.58334H16.5C17.2293 4.58334 17.9288 4.87308 18.4445 5.3888C18.9603 5.90453 19.25 6.604 19.25 7.33334V16.5C19.25 17.2294 18.9603 17.9288 18.4445 18.4446C17.9288 18.9603 17.2293 19.25 16.5 19.25H5.5C4.77065 19.25 4.07118 18.9603 3.55546 18.4446C3.03973 17.9288 2.75 17.2294 2.75 16.5V7.33334C2.75 6.604 3.03973 5.90453 3.55546 5.3888C4.07118 4.87308 4.77065 4.58334 5.5 4.58334H10.0833V2.85818C9.91238 2.70527 9.78239 2.51203 9.7052 2.29605C9.62801 2.08007 9.60608 1.84821 9.6414 1.62158C9.67672 1.39496 9.76817 1.18077 9.90742 0.998516C10.0467 0.816265 10.2293 0.671743 10.4387 0.578109C10.6481 0.484476 10.8775 0.444706 11.1062 0.462421C11.3349 0.480135 11.5555 0.554772 11.7479 0.679535C11.9404 0.804297 12.0986 0.975222 12.2081 1.17674C12.3176 1.37827 12.375 1.60398 12.375 1.83334ZM5.5 6.41668C5.25689 6.41668 5.02373 6.51326 4.85182 6.68516C4.67991 6.85707 4.58333 7.09023 4.58333 7.33334V16.5C4.58333 16.7431 4.67991 16.9763 4.85182 17.1482C5.02373 17.3201 5.25689 17.4167 5.5 17.4167H16.5C16.7431 17.4167 16.9763 17.3201 17.1482 17.1482C17.3201 16.9763 17.4167 16.7431 17.4167 16.5V7.33334C17.4167 7.09023 17.3201 6.85707 17.1482 6.68516C16.9763 6.51326 16.7431 6.41668 16.5 6.41668H5.5ZM1.83333 9.16668H0V14.6667H1.83333V9.16668ZM20.1667 9.16668H22V14.6667H20.1667V9.16668ZM8.25 13.2917C8.61467 13.2917 8.96441 13.1468 9.22227 12.889C9.48013 12.6311 9.625 12.2814 9.625 11.9167C9.625 11.552 9.48013 11.2023 9.22227 10.9444C8.96441 10.6865 8.61467 10.5417 8.25 10.5417C7.88533 10.5417 7.53559 10.6865 7.27773 10.9444C7.01987 11.2023 6.875 11.552 6.875 11.9167C6.875 12.2814 7.01987 12.6311 7.27773 12.889C7.53559 13.1468 7.88533 13.2917 8.25 13.2917ZM13.75 13.2917C14.1147 13.2917 14.4644 13.1468 14.7223 12.889C14.9801 12.6311 15.125 12.2814 15.125 11.9167C15.125 11.552 14.9801 11.2023 14.7223 10.9444C14.4644 10.6865 14.1147 10.5417 13.75 10.5417C13.3853 10.5417 13.0356 10.6865 12.7777 10.9444C12.5199 11.2023 12.375 11.552 12.375 11.9167C12.375 12.2814 12.5199 12.6311 12.7777 12.889C13.0356 13.1468 13.3853 13.2917 13.75 13.2917Z" fill="#949494"/>
</svg>
