<svg width="30" height="30" viewBox="0 0 30 30" fill="none" xmlns="http://www.w3.org/2000/svg">
<path d="M26.9996 10.8002H25.7997C25.7997 8.15364 23.6463 6.00014 20.9997 6.00014H15.5998V4.71485C16.6323 4.4466 17.3998 3.51501 17.3998 2.39999C17.3998 1.07629 16.3236 0 14.9999 0C13.6762 0 12.5999 1.07629 12.5999 2.39999C12.5999 3.5147 13.3671 4.44663 14.4 4.71485L14.3997 6.00014H8.99973C6.3532 6.00014 4.19972 8.15364 4.19972 10.8002H2.99988C1.34571 10.8002 0 12.1459 0 13.8001V15C0 16.4484 1.03253 17.6605 2.39997 17.9394V23.4002C2.39997 26.0467 4.55345 28.2002 7.19999 28.2002H10.2851C10.5533 29.2322 11.4843 30.0003 12.5999 30.0003H17.3999C18.7236 30.0003 19.7999 28.924 19.7999 27.6003C19.7999 26.2766 18.7236 25.2003 17.3999 25.2003H12.5999C11.4846 25.2003 10.5533 25.9685 10.2851 27.0004L7.19999 27.0001C5.21472 27.0001 3.60018 25.3855 3.60018 23.4002V18.0003H4.20011C4.20011 20.6468 6.35358 22.8003 9.00012 22.8003H21C23.6465 22.8003 25.8 20.6468 25.8 18.0003H26.9998C28.654 18.0003 29.9997 16.6545 29.9997 15.0003V13.8005C29.9997 12.146 28.6537 10.8003 26.9995 10.8003L26.9996 10.8002ZM13.8 2.40007C13.8 1.73821 14.3383 1.20023 14.9999 1.20023C15.6617 1.20023 16.1997 1.73852 16.1997 2.40007C16.1997 3.06193 15.6614 3.59991 14.9999 3.59991C14.3383 3.59991 13.8 3.06161 13.8 2.40007ZM12.6002 26.4H17.4002C18.0621 26.4 18.6001 26.9383 18.6001 27.5998C18.6001 28.2617 18.0618 28.7997 17.4002 28.7997H12.6002C11.9384 28.7997 11.4004 28.2614 11.4004 27.5998C11.4001 26.9383 11.9384 26.4 12.6002 26.4ZM3.00049 16.8002C2.00812 16.8002 1.20044 15.9924 1.20044 15.0001V13.8003C1.20044 12.8079 2.0082 12.0002 3.00049 12.0002H4.20032V16.8003L3.00049 16.8002ZM24.6001 18.0003C24.6001 19.9856 22.9854 21.6002 21.0003 21.6002H9.00041C7.01515 21.6002 5.40061 19.9855 5.40061 18.0003V10.8003C5.40061 8.81499 7.01522 7.20044 9.00041 7.20044H21.0003C22.9855 7.20044 24.6001 8.81507 24.6001 10.8003V18.0003ZM28.8001 15.0004C28.8001 15.9928 27.9923 16.8005 27 16.8005H25.8002V12.0004H27C27.9924 12.0004 28.8001 12.8082 28.8001 13.8005V15.0004Z" fill="white"/>
<path d="M13.2003 13.2013C13.2003 12.2087 12.3924 11.4009 11.4 11.4009C10.4075 11.4009 9.59961 12.2088 9.59961 13.2013C9.59961 14.1938 10.4075 15.0016 11.4 15.0016C12.3924 15.0016 13.2003 14.1937 13.2003 13.2013ZM11.4 13.8013C11.0688 13.8013 10.7999 13.5318 10.7999 13.2013C10.7999 12.8707 11.0688 12.6012 11.4 12.6012C11.7311 12.6012 12 12.8707 12 13.2013C12 13.5318 11.7314 13.8013 11.4 13.8013Z" fill="white"/>
<path d="M18.5963 11.4014C17.6037 11.4014 16.7959 12.2093 16.7959 13.2017C16.7959 14.1943 17.6038 15.0021 18.5963 15.0021C19.5887 15.0021 20.3966 14.1942 20.3966 13.2017C20.3966 12.2092 19.5887 11.4014 18.5963 11.4014ZM18.5963 13.8018C18.2651 13.8018 17.9962 13.5323 17.9962 13.2017C17.9962 12.8712 18.2651 12.6017 18.5963 12.6017C18.9274 12.6017 19.1963 12.8712 19.1963 13.2017C19.1963 13.5323 18.9274 13.8018 18.5963 13.8018Z" fill="white"/>
<path d="M16.802 15.6001C16.4703 15.6001 16.2021 15.8689 16.2021 16.2C16.2021 16.8619 15.6638 17.3999 15.0022 17.3999C14.3404 17.3999 13.8024 16.8616 13.8024 16.2C13.8024 15.8689 13.5341 15.6001 13.2025 15.6001C12.8708 15.6001 12.6025 15.8689 12.6025 16.2C12.6025 17.5237 13.6788 18.6 15.0025 18.6C16.3262 18.6 17.4025 17.5237 17.4025 16.2C17.4022 15.8689 17.1339 15.6001 16.802 15.6001Z" fill="white"/>
</svg>
