<svg width="34" height="34" viewBox="0 0 34 34" fill="none" xmlns="http://www.w3.org/2000/svg">
<circle cx="17" cy="17" r="17" fill="white"/>
<path d="M23.3623 12.7518C23.3623 12.6409 23.2867 12.5444 23.1789 12.5179L20.5029 11.8593L19.8443 9.18343C19.8177 9.07561 19.721 9 19.6101 9C19.5546 9 19.5028 9.01895 19.4615 9.05118C19.4203 9.08365 19.3895 9.12939 19.3762 9.18343L18.7176 11.8593L16.0416 12.5179C15.9337 12.5444 15.8582 12.6409 15.8582 12.7518C15.8582 12.8627 15.9337 12.9594 16.0416 12.9859L18.7176 13.6445L19.3762 16.3204C19.4027 16.428 19.4992 16.5038 19.6101 16.5038C19.721 16.5038 19.8177 16.428 19.8443 16.3204L20.5029 13.6445L23.1788 12.9859C23.2867 12.9594 23.3623 12.8627 23.3623 12.7518Z" fill="#161616"/>
<path d="M18.5733 21.9216C18.5733 22.0325 18.6491 22.1289 18.7567 22.1555L21.0009 22.7079L21.5531 24.9517C21.5797 25.0595 21.6761 25.1351 21.7873 25.1351C21.8982 25.1351 21.9946 25.0595 22.0212 24.9517L22.5734 22.7079L24.8175 22.1555C24.9251 22.1289 25.001 22.0325 25.001 21.9216C25.001 21.8107 24.9251 21.714 24.8175 21.6874L22.5734 21.1352L22.0212 18.8912C21.9946 18.7836 21.8982 18.7078 21.7873 18.7078C21.6761 18.7078 21.5797 18.7836 21.5531 18.8912L21.0009 21.1352L18.7567 21.6874C18.6491 21.714 18.5733 21.8107 18.5733 21.9216Z" fill="#161616"/>
<path d="M8.00054 18.8465C8.00054 18.9574 8.07615 19.0539 8.18398 19.0804L12.4109 20.1208L13.4513 24.3475C13.4778 24.4554 13.5743 24.531 13.6852 24.531C13.7961 24.531 13.8928 24.4554 13.9194 24.3475L14.9596 20.1208L19.1867 19.0804C19.2945 19.0539 19.3701 18.9574 19.3701 18.8465C19.3701 18.7356 19.2945 18.6389 19.1867 18.6124L14.9596 17.5722L13.9194 13.3453C13.8928 13.2377 13.7961 13.1619 13.6852 13.1619C13.5743 13.1619 13.4778 13.2377 13.4513 13.3453L12.4109 17.5722L8.18398 18.6124C8.07613 18.6389 8.00054 18.7356 8.00054 18.8465Z" fill="#161616"/>
</svg>
