<svg width="18" height="18" viewBox="0 0 18 18" fill="none" xmlns="http://www.w3.org/2000/svg">
<g clip-path="url(#clip0_459_1506)">
<path fill-rule="evenodd" clip-rule="evenodd" d="M5.57644 0.937501H12.4235C12.8509 0.937486 13.2139 0.937478 13.5139 0.968491C13.8332 1.00151 14.1284 1.07321 14.4072 1.24553C14.6861 1.41786 14.8822 1.64978 15.0545 1.92066C15.2164 2.17508 15.3787 2.49973 15.5698 2.8821L15.5822 2.90681C15.5895 2.92139 15.5962 2.93628 15.6022 2.95145L16.6549 5.61255C16.7801 5.92919 16.919 6.32423 16.9595 6.72846C17.0011 7.14194 16.9441 7.61558 16.6201 8.02643C16.3551 8.3625 15.9866 8.61473 15.5625 8.73473V15.9375H16.5C16.8106 15.9375 17.0625 16.1894 17.0625 16.5C17.0625 16.8106 16.8106 17.0625 16.5 17.0625H1.5C1.18934 17.0625 0.9375 16.8106 0.9375 16.5C0.9375 16.1894 1.18934 15.9375 1.5 15.9375H2.4375V8.7348C2.01335 8.61473 1.64484 8.3625 1.37981 8.02643C1.05584 7.61558 0.998865 7.14193 1.04038 6.72845C1.08097 6.32422 1.21979 5.92919 1.34505 5.61255L2.39776 2.95145C2.40376 2.93628 2.41041 2.92139 2.41771 2.90681L2.43007 2.88206C2.62123 2.49971 2.78354 2.17507 2.94542 1.92066C3.11778 1.64978 3.3139 1.41786 3.59273 1.24553C3.87156 1.07321 4.16671 1.00151 4.48606 0.968491C4.78601 0.937478 5.14897 0.937486 5.57644 0.937501ZM13.4999 8.16563C13.7519 8.43248 14.0744 8.6322 14.4375 8.73488V15.9375H11.4375V13.8509C11.4375 13.521 11.4375 13.2365 11.4163 13.003C11.394 12.7562 11.3444 12.5117 11.2114 12.2813C11.0633 12.0248 10.8503 11.8117 10.5938 11.6636C10.3633 11.5306 10.1188 11.481 9.87202 11.4587C9.63855 11.4375 9.354 11.4375 9.02415 11.4375H8.97585C8.646 11.4375 8.36145 11.4375 8.12798 11.4587C7.88115 11.481 7.63665 11.5306 7.40625 11.6636C7.14972 11.8117 6.93669 12.0248 6.78858 12.2813C6.65555 12.5117 6.60602 12.7562 6.58364 13.003C6.56248 13.2365 6.56249 13.521 6.5625 13.8508V15.9375H3.5625V8.73488C3.9256 8.63213 4.24798 8.43248 4.49994 8.16563C4.87597 8.56395 5.40893 8.8125 5.99993 8.8125C6.59095 8.8125 7.1239 8.56395 7.49994 8.16563C7.87598 8.56395 8.40893 8.8125 8.99992 8.8125C9.59093 8.8125 10.1239 8.56395 10.4999 8.16563C10.876 8.56395 11.4089 8.8125 11.9999 8.8125C12.5909 8.8125 13.1239 8.56395 13.4999 8.16563ZM7.6875 15.9375H10.3125V13.875C10.3125 13.5142 10.312 13.2811 10.2959 13.1045C10.2806 12.9357 10.2548 12.8744 10.2371 12.8438C10.1878 12.7583 10.1167 12.6872 10.0312 12.6379C10.0006 12.6202 9.9393 12.5944 9.77048 12.5791C9.59385 12.563 9.36082 12.5625 9 12.5625C8.63917 12.5625 8.40615 12.563 8.22953 12.5791C8.0607 12.5944 7.99942 12.6202 7.96875 12.6379C7.88325 12.6872 7.81222 12.7583 7.76288 12.8438C7.74517 12.8744 7.71938 12.9357 7.70408 13.1045C7.68803 13.2811 7.6875 13.5142 7.6875 13.875V15.9375ZM5.06243 6.75C5.06243 7.26777 5.48217 7.6875 5.99993 7.6875C6.5177 7.6875 6.93743 7.26777 6.93743 6.75C6.93743 6.43934 7.18928 6.1875 7.49993 6.1875C7.81058 6.1875 8.06242 6.43934 8.06242 6.75C8.06242 7.26777 8.4822 7.6875 8.99992 7.6875C9.51772 7.6875 9.93742 7.26777 9.93742 6.75C9.93742 6.43934 10.1893 6.1875 10.4999 6.1875C10.8106 6.1875 11.0624 6.43934 11.0624 6.75C11.0624 7.26777 11.4822 7.6875 11.9999 7.6875C12.5177 7.6875 12.9374 7.26777 12.9374 6.75C12.9374 6.43934 13.1893 6.1875 13.4999 6.1875C13.8106 6.1875 14.0624 6.43934 14.0624 6.75C14.0624 7.26777 14.4822 7.6875 14.9999 7.6875C15.2984 7.6875 15.5641 7.54868 15.7367 7.32979C15.8222 7.22144 15.8635 7.07321 15.8401 6.84086C15.8159 6.59927 15.7268 6.32456 15.6088 6.02639L14.5651 3.38804C14.3643 2.98653 14.2301 2.72062 14.1053 2.52459C13.9854 2.33603 13.8994 2.25422 13.8158 2.20252C13.7321 2.15082 13.6205 2.11051 13.3982 2.08752C13.1629 2.0632 12.8584 2.0625 12.3958 2.0625H5.6041C5.1415 2.0625 4.83705 2.0632 4.60177 2.08752C4.37945 2.11051 4.26783 2.15082 4.18418 2.20252C4.10053 2.25422 4.01455 2.33603 3.89457 2.52459C3.76985 2.72062 3.63566 2.98653 3.43487 3.38804L2.39117 6.02639C2.27321 6.32456 2.18401 6.59927 2.15975 6.84086C2.13642 7.07321 2.17774 7.22146 2.26319 7.3298C2.43578 7.54868 2.70147 7.6875 2.99993 7.6875C3.5177 7.6875 3.93743 7.26777 3.93743 6.75C3.93743 6.43934 4.18928 6.1875 4.49993 6.1875C4.8106 6.1875 5.06243 6.43934 5.06243 6.75Z" fill="black"/>
</g>
<defs>
<clipPath id="clip0_459_1506">
<rect width="18" height="18" fill="white"/>
</clipPath>
</defs>
</svg>
