<svg width="18" height="18" viewBox="0 0 18 18" fill="none" xmlns="http://www.w3.org/2000/svg">
<path d="M13.1348 2.34082C13.3346 2.34092 13.5306 2.39891 13.6982 2.50781C13.8658 2.61677 13.9979 2.77247 14.0791 2.95508L16.0576 7.40332H16.875C17.0001 7.40332 17.1205 7.45252 17.209 7.54102C17.2975 7.62951 17.3467 7.74985 17.3467 7.875C17.3467 8.00015 17.2975 8.12049 17.209 8.20898C17.1205 8.29748 17.0001 8.34668 16.875 8.34668H16.2217V14.0625C16.2217 14.3368 16.1129 14.6 15.9189 14.7939C15.725 14.9879 15.4618 15.0967 15.1875 15.0967H13.5C13.2257 15.0967 12.9625 14.9879 12.7686 14.7939C12.5746 14.6 12.4658 14.3368 12.4658 14.0625V12.8467H5.53418V14.0625C5.53418 14.3368 5.42543 14.6 5.23145 14.7939C5.03746 14.9879 4.77433 15.0967 4.5 15.0967H2.8125C2.53817 15.0967 2.27504 14.9879 2.08105 14.7939C1.88707 14.6 1.77832 14.3368 1.77832 14.0625V8.34668H1.125C0.999851 8.34668 0.879509 8.29748 0.791016 8.20898C0.702522 8.12049 0.65332 8.00015 0.65332 7.875C0.65332 7.74985 0.702522 7.62951 0.791016 7.54102C0.879509 7.45252 0.999851 7.40332 1.125 7.40332H1.94238L3.9209 2.95508C4.00213 2.77247 4.13422 2.61677 4.30176 2.50781C4.46937 2.39891 4.66536 2.34092 4.86523 2.34082H13.1348ZM2.72168 14.0625C2.72168 14.0865 2.73105 14.11 2.74805 14.127C2.76504 14.1439 2.78846 14.1533 2.8125 14.1533H4.5C4.52404 14.1533 4.54746 14.1439 4.56445 14.127C4.58145 14.11 4.59082 14.0865 4.59082 14.0625V12.8467H2.72168V14.0625ZM13.4092 14.0625C13.4092 14.0865 13.4186 14.11 13.4355 14.127C13.4525 14.1439 13.476 14.1533 13.5 14.1533H15.1875C15.2115 14.1533 15.235 14.1439 15.252 14.127C15.2689 14.11 15.2783 14.0865 15.2783 14.0625V12.8467H13.4092V14.0625ZM2.72168 11.9033H15.2783V8.34668H2.72168V11.9033ZM5.625 9.65332C5.75015 9.65332 5.87049 9.70252 5.95898 9.79102C6.04748 9.87951 6.09668 9.99985 6.09668 10.125C6.09668 10.2501 6.04748 10.3705 5.95898 10.459C5.87049 10.5475 5.75015 10.5967 5.625 10.5967H4.5C4.37485 10.5967 4.25451 10.5475 4.16602 10.459C4.07752 10.3705 4.02832 10.2501 4.02832 10.125C4.02832 9.99985 4.07752 9.87951 4.16602 9.79102C4.25451 9.70252 4.37485 9.65332 4.5 9.65332H5.625ZM13.5 9.65332C13.6251 9.65332 13.7455 9.70252 13.834 9.79102C13.9225 9.87951 13.9717 9.99985 13.9717 10.125C13.9717 10.2501 13.9225 10.3705 13.834 10.459C13.7455 10.5475 13.6251 10.5967 13.5 10.5967H12.375C12.2499 10.5967 12.1295 10.5475 12.041 10.459C11.9525 10.3705 11.9033 10.2501 11.9033 10.125C11.9033 9.99985 11.9525 9.87951 12.041 9.79102C12.1295 9.70252 12.2499 9.65332 12.375 9.65332H13.5ZM4.81641 3.29883C4.80174 3.30837 4.78934 3.32191 4.78223 3.33789L2.97559 7.40332H15.0244L13.2178 3.33789C13.2107 3.32191 13.1983 3.30837 13.1836 3.29883C13.169 3.28944 13.1521 3.28424 13.1348 3.28418H4.86523C4.84791 3.28424 4.83096 3.28944 4.81641 3.29883Z" fill="black" stroke="black" stroke-width="0.1"/>
</svg>
