<svg width="6" height="6" viewBox="0 0 6 6" fill="none" xmlns="http://www.w3.org/2000/svg">
<mask id="path-1-inside-1_1941_716" fill="white">
<path fill-rule="evenodd" clip-rule="evenodd" d="M3.23005 5.96449L5.41272 3.46755H3.98034L3.23005 5.96449ZM3.15054 2.34985L3.72673 3.29684H2.53177L3.15054 2.34985ZM2.35917 3.29044L3.00018 2.3457H1.81501L2.35917 3.29044ZM3.88651 3.29948L3.32502 2.3457H4.52865L3.88651 3.29948ZM1.6232 2.458L2.18997 3.29684H0.825428L1.6232 2.458ZM4.61721 2.458L4.02142 3.29684H5.45605L4.61721 2.458ZM3.77044 3.46002H2.50313L3.11813 5.92718L3.77044 3.46002ZM3.00998 5.96486L0.853313 3.46755H2.28569L3.00998 5.96486Z"/>
</mask>
<path fill-rule="evenodd" clip-rule="evenodd" d="M3.23005 5.96449L5.41272 3.46755H3.98034L3.23005 5.96449ZM3.15054 2.34985L3.72673 3.29684H2.53177L3.15054 2.34985ZM2.35917 3.29044L3.00018 2.3457H1.81501L2.35917 3.29044ZM3.88651 3.29948L3.32502 2.3457H4.52865L3.88651 3.29948ZM1.6232 2.458L2.18997 3.29684H0.825428L1.6232 2.458ZM4.61721 2.458L4.02142 3.29684H5.45605L4.61721 2.458ZM3.77044 3.46002H2.50313L3.11813 5.92718L3.77044 3.46002ZM3.00998 5.96486L0.853313 3.46755H2.28569L3.00998 5.96486Z" fill="url(#paint0_linear_1941_716)"/>
<path d="M3.23005 5.96449L3.98295 6.62262L2.27235 5.67671L3.23005 5.96449ZM5.41272 3.46755V2.46755H7.61506L6.16562 4.12569L5.41272 3.46755ZM3.98034 3.46755L3.02265 3.17978L3.23666 2.46755H3.98034V3.46755ZM3.15054 2.34985L2.3134 1.80286L3.18068 0.475531L4.00483 1.83006L3.15054 2.34985ZM3.72673 3.29684L4.58102 2.77706L5.50572 4.29684H3.72673V3.29684ZM2.53177 3.29684V4.29684H0.683813L1.69463 2.74985L2.53177 3.29684ZM2.35917 3.29044L3.18667 3.8519L2.28986 5.17365L1.49264 3.78955L2.35917 3.29044ZM3.00018 2.3457V1.3457H4.88714L3.82768 2.90717L3.00018 2.3457ZM1.81501 2.3457L0.948478 2.84482L0.085 1.3457H1.81501V2.3457ZM3.88651 3.29948L4.71603 3.85796L3.8298 5.17429L3.02475 3.8068L3.88651 3.29948ZM3.32502 2.3457L2.46326 2.85302L1.57589 1.3457H3.32502V2.3457ZM4.52865 2.3457V1.3457H6.40742L5.35817 2.90418L4.52865 2.3457ZM1.6232 2.458L0.898577 1.76886L1.75558 0.86773L2.4518 1.89815L1.6232 2.458ZM2.18997 3.29684L3.01857 2.737L4.07249 4.29684H2.18997V3.29684ZM0.825428 3.29684V4.29684H-1.50564L0.100804 2.6077L0.825428 3.29684ZM4.61721 2.458L3.80192 1.87895L4.48733 0.913915L5.32431 1.75089L4.61721 2.458ZM4.02142 3.29684V4.29684H2.08461L3.20613 2.71779L4.02142 3.29684ZM5.45605 3.29684L6.16316 2.58974L7.87028 4.29684H5.45605V3.29684ZM3.77044 3.46002V2.46002H5.0692L4.73722 3.71563L3.77044 3.46002ZM2.50313 3.46002L1.53282 3.70189L1.22325 2.46002H2.50313V3.46002ZM3.11813 5.92718L4.08491 6.18279L2.14782 6.16905L3.11813 5.92718ZM3.00998 5.96486L3.9704 5.68631L2.25314 6.61846L3.00998 5.96486ZM0.853313 3.46755L0.0964746 4.12115L-1.33157 2.46755H0.853313V3.46755ZM2.28569 3.46755V2.46755H3.03687L3.24611 3.189L2.28569 3.46755ZM3.23005 5.96449L2.47715 5.30635L4.65982 2.80942L5.41272 3.46755L6.16562 4.12569L3.98295 6.62262L3.23005 5.96449ZM5.41272 3.46755V4.46755H3.98034V3.46755V2.46755H5.41272V3.46755ZM3.98034 3.46755L4.93804 3.75533L4.18775 6.25226L3.23005 5.96449L2.27235 5.67671L3.02265 3.17978L3.98034 3.46755ZM3.15054 2.34985L4.00483 1.83006L4.58102 2.77706L3.72673 3.29684L2.87243 3.81663L2.29624 2.86964L3.15054 2.34985ZM3.72673 3.29684V4.29684H2.53177V3.29684V2.29684H3.72673V3.29684ZM2.53177 3.29684L1.69463 2.74985L2.3134 1.80286L3.15054 2.34985L3.98768 2.89684L3.3689 3.84384L2.53177 3.29684ZM2.35917 3.29044L1.53167 2.72897L2.17268 1.78424L3.00018 2.3457L3.82768 2.90717L3.18667 3.8519L2.35917 3.29044ZM3.00018 2.3457V3.3457H1.81501V2.3457V1.3457H3.00018V2.3457ZM1.81501 2.3457L2.68155 1.84659L3.22571 2.79132L2.35917 3.29044L1.49264 3.78955L0.948478 2.84482L1.81501 2.3457ZM3.88651 3.29948L3.02475 3.8068L2.46326 2.85302L3.32502 2.3457L4.18677 1.83838L4.74827 2.79216L3.88651 3.29948ZM3.32502 2.3457V1.3457H4.52865V2.3457V3.3457H3.32502V2.3457ZM4.52865 2.3457L5.35817 2.90418L4.71603 3.85796L3.88651 3.29948L3.05699 2.741L3.69913 1.78722L4.52865 2.3457ZM1.6232 2.458L2.4518 1.89815L3.01857 2.737L2.18997 3.29684L1.36137 3.85669L0.794604 3.01785L1.6232 2.458ZM2.18997 3.29684V4.29684H0.825428V3.29684V2.29684H2.18997V3.29684ZM0.825428 3.29684L0.100804 2.6077L0.898577 1.76886L1.6232 2.458L2.34782 3.14715L1.55005 3.98599L0.825428 3.29684ZM4.61721 2.458L5.43249 3.03706L4.83671 3.8759L4.02142 3.29684L3.20613 2.71779L3.80192 1.87895L4.61721 2.458ZM4.02142 3.29684V2.29684H5.45605V3.29684V4.29684H4.02142V3.29684ZM5.45605 3.29684L4.74895 4.00395L3.9101 3.16511L4.61721 2.458L5.32431 1.75089L6.16316 2.58974L5.45605 3.29684ZM3.77044 3.46002V4.46002H2.50313V3.46002V2.46002H3.77044V3.46002ZM2.50313 3.46002L3.47343 3.21814L4.08844 5.68531L3.11813 5.92718L2.14782 6.16905L1.53282 3.70189L2.50313 3.46002ZM3.11813 5.92718L2.15135 5.67157L2.80366 3.2044L3.77044 3.46002L4.73722 3.71563L4.08491 6.18279L3.11813 5.92718ZM3.00998 5.96486L2.25314 6.61846L0.0964746 4.12115L0.853313 3.46755L1.61015 2.81395L3.76682 5.31126L3.00998 5.96486ZM0.853313 3.46755V2.46755H2.28569V3.46755V4.46755H0.853313V3.46755ZM2.28569 3.46755L3.24611 3.189L3.9704 5.68631L3.00998 5.96486L2.04955 6.24341L1.32527 3.7461L2.28569 3.46755Z" fill="url(#paint1_linear_1941_716)" mask="url(#path-1-inside-1_1941_716)"/>
<mask id="path-3-inside-2_1941_716" fill="white">
<path fill-rule="evenodd" clip-rule="evenodd" d="M0.66026 1.84623L0.672517 1.84332C0.646599 1.74417 0.661218 1.64883 0.716315 1.55705C0.771413 1.46527 0.848794 1.40753 0.948458 1.38383L0.945271 1.37163C0.845606 1.39533 0.74886 1.379 0.655004 1.32252C0.561117 1.26592 0.501274 1.18828 0.475445 1.08948L0.463187 1.0924C0.489106 1.19154 0.474487 1.28689 0.419504 1.37864C0.364292 1.47045 0.287026 1.52816 0.187361 1.55186L0.190549 1.56405C0.290213 1.54035 0.386844 1.55671 0.480786 1.61305C0.574498 1.66945 0.634341 1.74709 0.66026 1.84623ZM2.23559 1.10415L2.24784 1.10123C2.22193 1.00209 2.23654 0.906743 2.29164 0.814964C2.34674 0.723184 2.42412 0.665445 2.52367 0.641773L2.52048 0.629579C2.42093 0.653251 2.32419 0.636917 2.23033 0.580437C2.13644 0.523842 2.0766 0.4462 2.05077 0.347398L2.03851 0.350313C2.06443 0.449457 2.04981 0.544805 1.99483 0.636557C1.93962 0.728364 1.86235 0.786076 1.76269 0.809775L1.76588 0.821969C1.86554 0.798269 1.96217 0.81463 2.05611 0.87097C2.14983 0.927364 2.20967 1.00501 2.23559 1.10415ZM3.61328 1.95284L3.62542 1.94995C3.5732 1.75019 3.70043 1.53824 3.90137 1.49047L3.89818 1.47827C3.69736 1.52602 3.48058 1.39589 3.42835 1.19612L3.41621 1.19901C3.46843 1.39878 3.3412 1.61071 3.14038 1.65847L3.14357 1.67066C3.34439 1.62291 3.56106 1.75307 3.61328 1.95284Z"/>
</mask>
<path fill-rule="evenodd" clip-rule="evenodd" d="M0.66026 1.84623L0.672517 1.84332C0.646599 1.74417 0.661218 1.64883 0.716315 1.55705C0.771413 1.46527 0.848794 1.40753 0.948458 1.38383L0.945271 1.37163C0.845606 1.39533 0.74886 1.379 0.655004 1.32252C0.561117 1.26592 0.501274 1.18828 0.475445 1.08948L0.463187 1.0924C0.489106 1.19154 0.474487 1.28689 0.419504 1.37864C0.364292 1.47045 0.287026 1.52816 0.187361 1.55186L0.190549 1.56405C0.290213 1.54035 0.386844 1.55671 0.480786 1.61305C0.574498 1.66945 0.634341 1.74709 0.66026 1.84623ZM2.23559 1.10415L2.24784 1.10123C2.22193 1.00209 2.23654 0.906743 2.29164 0.814964C2.34674 0.723184 2.42412 0.665445 2.52367 0.641773L2.52048 0.629579C2.42093 0.653251 2.32419 0.636917 2.23033 0.580437C2.13644 0.523842 2.0766 0.4462 2.05077 0.347398L2.03851 0.350313C2.06443 0.449457 2.04981 0.544805 1.99483 0.636557C1.93962 0.728364 1.86235 0.786076 1.76269 0.809775L1.76588 0.821969C1.86554 0.798269 1.96217 0.81463 2.05611 0.87097C2.14983 0.927364 2.20967 1.00501 2.23559 1.10415ZM3.61328 1.95284L3.62542 1.94995C3.5732 1.75019 3.70043 1.53824 3.90137 1.49047L3.89818 1.47827C3.69736 1.52602 3.48058 1.39589 3.42835 1.19612L3.41621 1.19901C3.46843 1.39878 3.3412 1.61071 3.14038 1.65847L3.14357 1.67066C3.34439 1.62291 3.56106 1.75307 3.61328 1.95284Z" fill="url(#paint2_linear_1941_716)"/>
<path d="M0.66026 1.84623L0.913186 2.81372L-0.0596876 3.04506L-0.312614 2.07757L0.66026 1.84623ZM0.672517 1.84332L1.64539 1.61198L1.89832 2.57946L0.925443 2.8108L0.672517 1.84332ZM0.948458 1.38383L1.92133 1.15249L2.17426 2.11997L1.20138 2.35131L0.948458 1.38383ZM0.945271 1.37163L0.692345 0.404149L1.66522 0.17281L1.91814 1.1403L0.945271 1.37163ZM0.655004 1.32252L0.145121 2.16973L0.144457 2.16933L0.655004 1.32252ZM0.475445 1.08948L0.222519 0.121995L1.19539 -0.109344L1.44832 0.858142L0.475445 1.08948ZM0.463187 1.0924L-0.509686 1.32374L-0.762612 0.35625L0.210261 0.12491L0.463187 1.0924ZM0.419504 1.37864L1.28675 1.89839L1.28596 1.89969L0.419504 1.37864ZM0.187361 1.55186L-0.785512 1.7832L-1.03844 0.815712L-0.065565 0.584372L0.187361 1.55186ZM0.190549 1.56405L0.443475 2.53154L-0.529398 2.76288L-0.782324 1.79539L0.190549 1.56405ZM0.480786 1.61305L0.989336 0.765037L0.990669 0.765839L0.480786 1.61305ZM2.23559 1.10415L2.48851 2.07164L1.51564 2.30297L1.26271 1.33549L2.23559 1.10415ZM2.24784 1.10123L3.22072 0.869895L3.47364 1.83738L2.50077 2.06872L2.24784 1.10123ZM2.52367 0.641773L3.49654 0.410433L3.74947 1.37792L2.7766 1.60926L2.52367 0.641773ZM2.52048 0.629579L2.26756 -0.337907L3.24043 -0.569246L3.49336 0.39824L2.52048 0.629579ZM2.23033 0.580437L1.72045 1.42765L1.71978 1.42725L2.23033 0.580437ZM2.05077 0.347398L1.79785 -0.620087L2.77072 -0.851427L3.02365 0.116059L2.05077 0.347398ZM2.03851 0.350313L1.06564 0.581652L0.812715 -0.385833L1.78559 -0.617173L2.03851 0.350313ZM1.99483 0.636557L2.86207 1.15631L2.86129 1.15761L1.99483 0.636557ZM1.76269 0.809775L0.789815 1.04111L0.536889 0.0736288L1.50976 -0.157711L1.76269 0.809775ZM1.76588 0.821969L2.0188 1.78945L1.04593 2.02079L0.793003 1.05331L1.76588 0.821969ZM2.05611 0.87097L2.56466 0.0229538L2.566 0.0237558L2.05611 0.87097ZM3.61328 1.95284L3.86621 2.92033L2.89333 3.15167L2.64041 2.18418L3.61328 1.95284ZM3.62542 1.94995L4.5983 1.71862L4.85122 2.6861L3.87835 2.91744L3.62542 1.94995ZM3.90137 1.49047L4.87424 1.25913L5.12716 2.22661L4.15429 2.45795L3.90137 1.49047ZM3.89818 1.47827L3.64525 0.510786L4.61812 0.279447L4.87105 1.24693L3.89818 1.47827ZM3.42835 1.19612L3.17543 0.228632L4.1483 -0.00270703L4.40122 0.964779L3.42835 1.19612ZM3.41621 1.19901L2.44334 1.43034L2.19041 0.462859L3.16328 0.23152L3.41621 1.19901ZM3.14038 1.65847L2.16751 1.88981L1.91458 0.922321L2.88746 0.690982L3.14038 1.65847ZM3.14357 1.67066L3.3965 2.63815L2.42362 2.86949L2.1707 1.902L3.14357 1.67066ZM0.66026 1.84623L0.407334 0.878747L0.419591 0.875832L0.672517 1.84332L0.925443 2.8108L0.913186 2.81372L0.66026 1.84623ZM0.672517 1.84332L-0.300356 2.07466C-0.397516 1.703 -0.331945 1.33883 -0.150536 1.03665L0.716315 1.55705L1.58317 2.07745C1.6131 2.02759 1.64411 1.95587 1.65798 1.86524C1.67203 1.77343 1.66479 1.68617 1.64539 1.61198L0.672517 1.84332ZM0.716315 1.55705L-0.150536 1.03665C0.0310555 0.734157 0.321961 0.505174 0.695532 0.416343L0.948458 1.38383L1.20138 2.35131C1.27606 2.33356 1.35645 2.29895 1.43084 2.24344C1.50429 2.18864 1.5531 2.12753 1.58317 2.07745L0.716315 1.55705ZM0.948458 1.38383L-0.0244147 1.61517L-0.0276025 1.60297L0.945271 1.37163L1.91814 1.1403L1.92133 1.15249L0.948458 1.38383ZM0.945271 1.37163L1.1982 2.33912C0.824508 2.42798 0.454655 2.356 0.145122 2.16973L0.655004 1.32252L1.16489 0.475305C1.11362 0.444455 1.04032 0.412248 0.948317 0.396688C0.855144 0.380931 0.767018 0.386392 0.692345 0.404149L0.945271 1.37163ZM0.655004 1.32252L0.144457 2.16933C-0.162738 1.98416 -0.400179 1.69282 -0.497428 1.32082L0.475445 1.08948L1.44832 0.858142C1.42876 0.783321 1.39202 0.703006 1.33462 0.628522C1.27802 0.555067 1.21582 0.506006 1.16555 0.475705L0.655004 1.32252ZM0.475445 1.08948L0.728371 2.05697L0.716113 2.05988L0.463187 1.0924L0.210261 0.12491L0.222519 0.121995L0.475445 1.08948ZM0.463187 1.0924L1.43606 0.861057C1.53319 1.23259 1.46766 1.59649 1.28675 1.89839L0.419504 1.37864L-0.447738 0.858892C-0.477582 0.908693 -0.508482 0.980286 -0.522303 1.07074C-0.536305 1.16239 -0.529082 1.24954 -0.509686 1.32374L0.463187 1.0924ZM0.419504 1.37864L1.28596 1.89969C1.10461 2.20125 0.814284 2.43041 0.440287 2.51934L0.187361 1.55186L-0.065565 0.584372C-0.140294 0.602142 -0.220751 0.63679 -0.295161 0.692326C-0.36858 0.747123 -0.417169 0.808059 -0.446955 0.857588L0.419504 1.37864ZM0.187361 1.55186L1.16023 1.32052L1.16342 1.33271L0.190549 1.56405L-0.782324 1.79539L-0.785512 1.7832L0.187361 1.55186ZM0.190549 1.56405L-0.0623773 0.596566C0.31162 0.507633 0.680764 0.579978 0.989335 0.765038L0.480786 1.61305L-0.0277638 2.46107C0.0229165 2.49146 0.0958141 2.52351 0.187613 2.53902C0.280651 2.55474 0.368745 2.54931 0.443475 2.53154L0.190549 1.56405ZM0.480786 1.61305L0.990669 0.765839C1.29902 0.951397 1.536 1.24335 1.63313 1.61489L0.66026 1.84623L-0.312614 2.07757C-0.293218 2.15176 -0.256695 2.23195 -0.199218 2.3066C-0.142487 2.38028 -0.0799617 2.42966 -0.0290972 2.46027L0.480786 1.61305ZM2.23559 1.10415L1.98266 0.136664L1.99492 0.133749L2.24784 1.10123L2.50077 2.06872L2.48851 2.07164L2.23559 1.10415ZM2.24784 1.10123L1.27497 1.33257C1.17781 0.960919 1.24338 0.596749 1.42479 0.294563L2.29164 0.814964L3.15849 1.33536C3.18843 1.2855 3.21943 1.21379 3.23331 1.12316C3.24736 1.03134 3.24011 0.94409 3.22072 0.869895L2.24784 1.10123ZM2.29164 0.814964L1.42479 0.294563C1.60629 -0.007776 1.89713 -0.23687 2.27074 -0.325713L2.52367 0.641773L2.7766 1.60926C2.85146 1.59146 2.9319 1.55678 3.00625 1.50129C3.07965 1.44651 3.12843 1.38544 3.15849 1.33536L2.29164 0.814964ZM2.52367 0.641773L1.5508 0.873112L1.54761 0.860919L2.52048 0.629579L3.49336 0.39824L3.49654 0.410433L2.52367 0.641773ZM2.52048 0.629579L2.77341 1.59706C2.39967 1.68594 2.02983 1.61383 1.72045 1.42765L2.23033 0.580437L2.74021 -0.266778C2.68896 -0.297621 2.6157 -0.329809 2.52375 -0.345371C2.43062 -0.361132 2.34243 -0.35571 2.26756 -0.337907L2.52048 0.629579ZM2.23033 0.580437L1.71978 1.42725C1.41259 1.24207 1.17515 0.950732 1.0779 0.578738L2.05077 0.347398L3.02365 0.116059C3.00408 0.0412377 2.96734 -0.0390772 2.90995 -0.11356C2.85335 -0.187016 2.79114 -0.236077 2.74088 -0.266378L2.23033 0.580437ZM2.05077 0.347398L2.3037 1.31488L2.29144 1.3178L2.03851 0.350313L1.78559 -0.617173L1.79785 -0.620087L2.05077 0.347398ZM2.03851 0.350313L3.01139 0.118974C3.10852 0.490512 3.04299 0.854404 2.86207 1.1563L1.99483 0.636557L1.12759 0.116809C1.09775 0.16661 1.06685 0.238204 1.05302 0.328661C1.03902 0.420308 1.04625 0.507461 1.06564 0.581652L2.03851 0.350313ZM1.99483 0.636557L2.86129 1.15761C2.67993 1.45917 2.38961 1.68833 2.01561 1.77726L1.76269 0.809775L1.50976 -0.157711C1.43503 -0.139941 1.35458 -0.105293 1.28017 -0.0497575C1.20675 0.00503938 1.15816 0.0659759 1.12837 0.115505L1.99483 0.636557ZM1.76269 0.809775L2.73556 0.578436L2.73875 0.590629L1.76588 0.821969L0.793003 1.05331L0.789815 1.04111L1.76269 0.809775ZM1.76588 0.821969L1.51295 -0.145517C1.88695 -0.234449 2.25609 -0.162105 2.56466 0.0229548L2.05611 0.87097L1.54756 1.71899C1.59824 1.74938 1.67114 1.78143 1.76294 1.79694C1.85598 1.81266 1.94407 1.80722 2.0188 1.78945L1.76588 0.821969ZM2.05611 0.87097L2.566 0.0237558C2.87435 0.209314 3.11133 0.501272 3.20846 0.87281L2.23559 1.10415L1.26271 1.33549C1.28211 1.40968 1.31863 1.48987 1.37611 1.56452C1.43284 1.6382 1.49537 1.68758 1.54623 1.71818L2.05611 0.87097ZM3.61328 1.95284L3.36036 0.985356L3.3725 0.982469L3.62542 1.94995L3.87835 2.91744L3.86621 2.92033L3.61328 1.95284ZM3.62542 1.94995L2.65255 2.18129C2.46066 1.44729 2.91011 0.698547 3.64844 0.522979L3.90137 1.49047L4.15429 2.45795C4.33502 2.41498 4.46326 2.30361 4.53526 2.1837C4.60725 2.06382 4.64528 1.89832 4.5983 1.71862L3.62542 1.94995ZM3.90137 1.49047L2.92849 1.7218L2.9253 1.70961L3.89818 1.47827L4.87105 1.24693L4.87424 1.25913L3.90137 1.49047ZM3.89818 1.47827L4.1511 2.44576C3.41308 2.62125 2.64742 2.16165 2.45548 1.42746L3.42835 1.19612L4.40122 0.964779C4.3542 0.784884 4.23903 0.655822 4.11658 0.582291C3.99414 0.508771 3.82613 0.467775 3.64525 0.510786L3.89818 1.47827ZM3.42835 1.19612L3.68128 2.1636L3.66913 2.16649L3.41621 1.19901L3.16328 0.23152L3.17543 0.228632L3.42835 1.19612ZM3.41621 1.19901L4.38908 0.967666C4.58092 1.70148 4.13172 2.45037 3.39331 2.62595L3.14038 1.65847L2.88746 0.690982C2.70653 0.734005 2.57828 0.845493 2.50634 0.965342C2.43439 1.08519 2.39636 1.25065 2.44334 1.43034L3.41621 1.19901ZM3.14038 1.65847L4.11326 1.42713L4.11644 1.43932L3.14357 1.67066L2.1707 1.902L2.16751 1.88981L3.14038 1.65847ZM3.14357 1.67066L2.89064 0.703175C3.62905 0.527589 4.39432 0.987693 4.58615 1.7215L3.61328 1.95284L2.64041 2.18418C2.68738 2.36387 2.80241 2.49294 2.92493 2.56655C3.04745 2.64015 3.21557 2.68117 3.3965 2.63815L3.14357 1.67066Z" fill="url(#paint3_linear_1941_716)" mask="url(#path-3-inside-2_1941_716)"/>
<defs>
<linearGradient id="paint0_linear_1941_716" x1="5.45605" y1="4.15528" x2="0.825428" y2="4.15528" gradientUnits="userSpaceOnUse">
<stop stop-color="#BD8436"/>
<stop offset="1" stop-color="#F1C771"/>
</linearGradient>
<linearGradient id="paint1_linear_1941_716" x1="5.45605" y1="4.15528" x2="0.825428" y2="4.15528" gradientUnits="userSpaceOnUse">
<stop stop-color="#BD8436"/>
<stop offset="1" stop-color="#F1C771"/>
</linearGradient>
<linearGradient id="paint2_linear_1941_716" x1="3.75501" y1="0.930643" x2="0.263576" y2="1.8434" gradientUnits="userSpaceOnUse">
<stop stop-color="#BD8436"/>
<stop offset="1" stop-color="#F1C771"/>
</linearGradient>
<linearGradient id="paint3_linear_1941_716" x1="3.75501" y1="0.930643" x2="0.263576" y2="1.8434" gradientUnits="userSpaceOnUse">
<stop stop-color="#BD8436"/>
<stop offset="1" stop-color="#F1C771"/>
</linearGradient>
</defs>
</svg>
