<svg width="40" height="40" viewBox="0 0 40 40" fill="none" xmlns="http://www.w3.org/2000/svg">
<path d="M32.5 9.16666L31.4672 25.8752C31.2032 30.144 31.0713 32.2785 30.0013 33.8132C29.4722 34.5718 28.7912 35.2122 28.0012 35.6933C26.4035 36.6667 24.265 36.6667 19.9878 36.6667C15.7052 36.6667 13.5638 36.6667 11.9651 35.6915C11.1747 35.2095 10.4933 34.568 9.96447 33.808C8.8948 32.271 8.76575 30.1335 8.50768 25.8587L7.5 9.16666" stroke="black" stroke-width="2" stroke-linecap="round"/>
<path d="M5 9.16668H35M26.7595 9.16668L25.6218 6.81956C24.866 5.26044 24.488 4.48088 23.8362 3.99469C23.6917 3.88684 23.5385 3.79091 23.3783 3.70784C22.6565 3.33334 21.7902 3.33334 20.0575 3.33334C18.2813 3.33334 17.3933 3.33334 16.6595 3.72354C16.4968 3.81003 16.3416 3.90984 16.1955 4.02196C15.5361 4.52784 15.1677 5.33593 14.431 6.95211L13.4215 9.16668" stroke="black" stroke-width="2" stroke-linecap="round"/>
<path d="M15.833 27.5V17.5" stroke="black" stroke-width="2" stroke-linecap="round"/>
<path d="M24.167 27.5V17.5" stroke="black" stroke-width="2" stroke-linecap="round"/>
</svg>
