<svg width="18" height="18" viewBox="0 0 18 18" fill="none" xmlns="http://www.w3.org/2000/svg">
<path fill-rule="evenodd" clip-rule="evenodd" d="M17.0625 3.69992C17.0625 2.60244 16.1885 1.66123 15.0419 1.70118C14.1881 1.73092 13.0722 1.81972 12.2137 2.07674C11.4674 2.30015 10.6279 2.73654 9.97365 3.11524C9.36007 3.47034 8.59627 3.48805 7.9746 3.15936C7.22802 2.76457 6.24575 2.29661 5.39352 2.07172C4.67291 1.88157 3.76138 1.79023 3.02131 1.74475C1.85263 1.67293 0.9375 2.62401 0.9375 3.74838V12.1077C0.9375 13.2598 1.87033 14.1594 2.97603 14.2285C3.6951 14.2735 4.50425 14.36 5.10648 14.5189C5.8509 14.7154 6.77145 15.1522 7.5147 15.5483C8.43967 16.0414 9.56032 16.0414 10.4853 15.5483C11.2285 15.1522 12.1491 14.7154 12.8936 14.5189C13.4957 14.36 14.3049 14.2735 15.024 14.2285C16.1297 14.1594 17.0625 13.2598 17.0625 12.1077V3.69992ZM15.0811 2.8255C15.5422 2.80943 15.9375 3.18873 15.9375 3.69992V12.1077C15.9375 12.622 15.5113 13.0708 14.9537 13.1057C14.2186 13.1517 13.3193 13.243 12.6064 13.4311C11.7287 13.6628 10.712 14.1526 9.9561 14.5555C9.82987 14.6228 9.69788 14.6758 9.5625 14.7145V4.45655C9.90172 4.38865 10.2316 4.26578 10.5371 4.08893C11.175 3.71979 11.9212 3.33864 12.5363 3.15448C13.2482 2.94136 14.2419 2.85472 15.0811 2.8255ZM8.4375 4.48126C8.09625 4.42819 7.76175 4.31938 7.44875 4.15388C6.71615 3.7665 5.82807 3.3499 5.10648 3.15949C4.49732 2.99875 3.67678 2.91216 2.95229 2.86763C2.47682 2.83841 2.0625 3.22549 2.0625 3.74838V12.1077C2.0625 12.622 2.48873 13.0708 3.04626 13.1057C3.78132 13.1517 4.68069 13.243 5.39352 13.4311C6.27128 13.6628 7.28795 14.1526 8.0439 14.5555C8.17013 14.6228 8.30212 14.6758 8.4375 14.7145V4.48126Z" fill="black"/>
</svg>
