<svg width="100" height="48" viewBox="0 0 100 48" fill="none" xmlns="http://www.w3.org/2000/svg">
<path d="M43.1797 16.8818C42.0997 16.8818 41.1647 16.6418 40.3747 16.1618C39.5947 15.6818 38.9997 15.0218 38.5897 14.1818C38.1797 13.3318 37.9747 12.3718 37.9747 11.3018C37.9747 10.0718 38.2147 9.01676 38.6947 8.13676C39.1847 7.25675 39.8597 6.59175 40.7197 6.14175C41.5797 5.68175 42.5597 5.45175 43.6597 5.45175C44.6698 5.45175 45.8348 5.60675 47.1548 5.91675L47.0198 8.51176H45.9548L45.5948 6.71175C45.4548 6.60175 45.2148 6.49675 44.8748 6.39675C44.5448 6.29675 44.0998 6.24675 43.5397 6.24675C42.8097 6.24675 42.1647 6.42675 41.6047 6.78675C41.0447 7.14675 40.6047 7.68176 40.2847 8.39176C39.9747 9.10176 39.8197 9.96177 39.8197 10.9718C39.8197 11.9018 39.9447 12.7518 40.1947 13.5218C40.4547 14.2918 40.8447 14.9118 41.3647 15.3818C41.8947 15.8418 42.5397 16.0718 43.2997 16.0718C43.7797 16.0718 44.2348 16.0168 44.6648 15.9068C45.0948 15.7868 45.4248 15.6318 45.6548 15.4418V12.0968L43.7647 11.9468V11.0618H48.1448V11.9468L47.2748 12.0818V16.1168C47.0548 16.1268 46.6898 16.2118 46.1798 16.3718C45.6598 16.5318 45.1698 16.6568 44.7098 16.7468C44.2498 16.8368 43.7397 16.8818 43.1797 16.8818ZM52.7983 16.8818C51.5883 16.8818 50.6633 16.4868 50.0233 15.6968C49.3933 14.9068 49.0783 13.8518 49.0783 12.5318C49.0783 11.6618 49.2433 10.8968 49.5733 10.2368C49.9033 9.57676 50.3633 9.06676 50.9533 8.70676C51.5533 8.34676 52.2333 8.16676 52.9933 8.16676C53.9233 8.16676 54.6433 8.42676 55.1533 8.94676C55.6733 9.45676 55.9483 10.1918 55.9783 11.1518C55.9783 11.7618 55.9433 12.2268 55.8733 12.5468H50.7133C50.7333 13.5368 50.9633 14.3368 51.4033 14.9468C51.8433 15.5468 52.4683 15.8468 53.2783 15.8468C53.6783 15.8468 54.0933 15.7768 54.5233 15.6368C54.9633 15.4868 55.3033 15.3118 55.5433 15.1118L55.8283 15.7718C55.5383 16.0718 55.1083 16.3318 54.5383 16.5518C53.9683 16.7718 53.3883 16.8818 52.7983 16.8818ZM54.3283 11.7518C54.3583 11.5418 54.3733 11.3268 54.3733 11.1068C54.3633 10.4568 54.2233 9.94677 53.9533 9.57676C53.6933 9.19676 53.2783 9.00676 52.7083 9.00676C52.1283 9.00676 51.6633 9.21676 51.3133 9.63676C50.9733 10.0568 50.7783 10.7618 50.7283 11.7518H54.3283ZM59.8325 16.8668C59.2625 16.8668 58.8375 16.7368 58.5575 16.4768C58.2775 16.2168 58.1375 15.7718 58.1375 15.1418V9.38176H57.0575V8.70676C57.1075 8.69676 57.2475 8.66176 57.4775 8.60176C57.7075 8.54176 57.8625 8.48676 57.9425 8.43676C58.1025 8.34676 58.2275 8.16676 58.3175 7.89676C58.3975 7.70676 58.4925 7.40175 58.6025 6.98175C58.7125 6.56175 58.7775 6.31175 58.7975 6.23175H59.6825L59.7125 8.39176H62.2175V9.38176H59.7125V13.9868C59.7125 14.5568 59.7275 14.9568 59.7575 15.1868C59.7975 15.4168 59.8725 15.5668 59.9825 15.6368C60.1025 15.7068 60.3025 15.7418 60.5825 15.7418C60.8525 15.7418 61.1475 15.7068 61.4675 15.6368C61.7975 15.5668 62.0525 15.4918 62.2325 15.4118L62.4575 16.0868C62.2175 16.2668 61.8275 16.4418 61.2875 16.6118C60.7575 16.7818 60.2725 16.8668 59.8325 16.8668ZM17.4318 22.5018L16.2618 22.3218V21.5717H18.2568C18.6168 21.5717 18.9718 21.5567 19.3218 21.5267C19.8619 21.4867 20.3719 21.4667 20.8519 21.4667C22.3019 21.4767 23.3269 21.7467 23.9269 22.2767C24.5269 22.8068 24.8269 23.6068 24.8269 24.6768C24.8269 25.4768 24.6419 26.1718 24.2719 26.7618C23.9019 27.3518 23.3869 27.8018 22.7269 28.1118C22.0769 28.4218 21.3269 28.5768 20.4769 28.5768C20.1869 28.5768 19.8919 28.5718 19.5918 28.5618C19.2918 28.5418 19.1068 28.5268 19.0368 28.5168V31.8168L21.0919 31.9818V32.7168H16.1868V31.9818L17.4318 31.8318V22.5018ZM19.0368 27.6918C19.3168 27.7418 19.7969 27.7668 20.4769 27.7668C21.2669 27.7668 21.9069 27.5268 22.3969 27.0468C22.8969 26.5668 23.1469 25.7818 23.1469 24.6918C23.1469 23.8318 22.9319 23.2168 22.5019 22.8468C22.0719 22.4668 21.4019 22.2767 20.4919 22.2767C20.1719 22.2767 19.8319 22.2967 19.4718 22.3368C19.2518 22.3568 19.1068 22.3667 19.0368 22.3667V27.6918ZM25.9131 31.9818L27.0381 31.8918V25.5468L25.9581 25.2768V24.4668L28.0281 24.1968H28.0581L28.3881 24.4668V24.7368L28.3431 25.9068H28.3881C28.4881 25.7368 28.6681 25.5168 28.9281 25.2468C29.1881 24.9768 29.5231 24.7318 29.9331 24.5118C30.3431 24.2818 30.7881 24.1668 31.2681 24.1668C31.4681 24.1668 31.6331 24.1918 31.7631 24.2418V25.9218C31.6931 25.8718 31.5781 25.8268 31.4181 25.7868C31.2681 25.7368 31.0981 25.7118 30.9081 25.7118C30.0781 25.7118 29.3081 25.9668 28.5981 26.4768V31.8768L30.5031 31.9968V32.7168H25.9131V31.9818ZM36.4433 32.8818C35.2332 32.8818 34.3082 32.4868 33.6682 31.6968C33.0382 30.9068 32.7232 29.8518 32.7232 28.5318C32.7232 27.6618 32.8882 26.8968 33.2182 26.2368C33.5482 25.5768 34.0082 25.0668 34.5982 24.7068C35.1982 24.3468 35.8782 24.1668 36.6383 24.1668C37.5683 24.1668 38.2883 24.4268 38.7983 24.9468C39.3183 25.4568 39.5933 26.1918 39.6233 27.1518C39.6233 27.7618 39.5883 28.2268 39.5183 28.5468H34.3582C34.3782 29.5368 34.6082 30.3368 35.0482 30.9468C35.4882 31.5468 36.1132 31.8468 36.9233 31.8468C37.3233 31.8468 37.7383 31.7768 38.1683 31.6368C38.6083 31.4868 38.9483 31.3118 39.1883 31.1118L39.4733 31.7718C39.1833 32.0718 38.7533 32.3318 38.1833 32.5518C37.6133 32.7718 37.0333 32.8818 36.4433 32.8818ZM37.9733 27.7518C38.0033 27.5418 38.0183 27.3268 38.0183 27.1068C38.0083 26.4568 37.8683 25.9468 37.5983 25.5768C37.3383 25.1968 36.9233 25.0068 36.3533 25.0068C35.7732 25.0068 35.3082 25.2168 34.9582 25.6368C34.6182 26.0568 34.4232 26.7618 34.3732 27.7518H37.9733ZM40.8975 31.9818L41.8125 31.8468V25.5468L40.7325 25.2768V24.4668L42.8775 24.1968L43.1475 24.3918L43.2375 24.9918L43.2225 25.4718C43.5725 25.1518 44.0475 24.8618 44.6475 24.6018C45.2575 24.3318 45.8025 24.1968 46.2825 24.1968C46.8225 24.1968 47.2575 24.2868 47.5875 24.4668C47.9175 24.6468 48.1675 24.9268 48.3375 25.3068C48.6575 25.0368 49.1025 24.7868 49.6725 24.5568C50.2525 24.3168 50.7925 24.1968 51.2925 24.1968C51.9125 24.1968 52.3975 24.3168 52.7475 24.5568C53.0975 24.7868 53.3425 25.1518 53.4825 25.6518C53.6325 26.1418 53.7075 26.8018 53.7075 27.6318V31.8468L54.7875 31.9818V32.7168H51.2175V31.9818L52.1475 31.8468V27.6768C52.1475 27.0968 52.1025 26.6368 52.0125 26.2968C51.9325 25.9468 51.7725 25.6868 51.5325 25.5168C51.3025 25.3468 50.9675 25.2618 50.5275 25.2618C50.1975 25.2618 49.8475 25.3368 49.4775 25.4868C49.1075 25.6268 48.7925 25.7968 48.5325 25.9968C48.6225 26.3868 48.6675 26.9418 48.6675 27.6618V31.8468L49.7325 31.9818V32.7168H46.1025V31.9818L47.0925 31.8468V27.6468C47.0925 27.0468 47.0525 26.5818 46.9725 26.2518C46.9025 25.9218 46.7625 25.6768 46.5525 25.5168C46.3425 25.3468 46.0225 25.2618 45.5925 25.2618C45.2325 25.2618 44.8475 25.3518 44.4375 25.5318C44.0375 25.7118 43.6875 25.9218 43.3875 26.1618V31.8468L44.3925 31.9818V32.7168H40.8975V31.9818ZM57.6093 22.8918C57.2893 22.8918 57.0493 22.8018 56.8893 22.6218C56.7293 22.4418 56.6493 22.2117 56.6493 21.9317C56.6493 21.6117 56.7443 21.3467 56.9343 21.1367C57.1343 20.9267 57.4043 20.8217 57.7443 20.8217C58.0843 20.8217 58.3343 20.9117 58.4943 21.0917C58.6543 21.2717 58.7343 21.5017 58.7343 21.7817C58.7343 22.1217 58.6343 22.3918 58.4343 22.5918C58.2443 22.7918 57.9743 22.8918 57.6243 22.8918H57.6093ZM57.0093 25.5468L55.8693 25.2768V24.4818L58.1943 24.1968H58.2243L58.5693 24.4668V31.8618L59.7693 31.9818V32.7168H55.7943V31.9818L57.0093 31.8468V25.5468ZM67.6594 32.8518C67.3794 32.8518 67.1694 32.7968 67.0294 32.6868C66.8994 32.5768 66.8344 32.3968 66.8344 32.1468V31.6368C66.5044 31.9668 66.0894 32.2568 65.5894 32.5068C65.0994 32.7568 64.6044 32.8818 64.1044 32.8818C63.1744 32.8818 62.5144 32.6318 62.1244 32.1318C61.7344 31.6318 61.5394 30.8068 61.5394 29.6568V25.3068L60.6994 25.0668V24.4068L62.7994 24.2118H62.8144L63.0994 24.3918V29.5368C63.0994 30.1168 63.1394 30.5718 63.2194 30.9018C63.3094 31.2218 63.4594 31.4618 63.6694 31.6218C63.8894 31.7718 64.2044 31.8468 64.6144 31.8468C65.0144 31.8468 65.3894 31.7618 65.7394 31.5918C66.0894 31.4218 66.3944 31.2218 66.6544 30.9918V25.3068L65.5744 25.0668V24.4068L67.8544 24.2118H67.8694L68.2144 24.3918V31.9518H69.1145L69.0995 32.6268C68.8195 32.6968 68.5745 32.7518 68.3644 32.7918C68.1644 32.8318 67.9294 32.8518 67.6594 32.8518ZM70.297 31.9818L71.212 31.8468V25.5468L70.132 25.2768V24.4668L72.277 24.1968L72.547 24.3918L72.637 24.9918L72.622 25.4718C72.972 25.1518 73.447 24.8618 74.047 24.6018C74.657 24.3318 75.202 24.1968 75.682 24.1968C76.222 24.1968 76.657 24.2868 76.987 24.4668C77.317 24.6468 77.567 24.9268 77.737 25.3068C78.057 25.0368 78.502 24.7868 79.072 24.5568C79.652 24.3168 80.192 24.1968 80.692 24.1968C81.312 24.1968 81.797 24.3168 82.147 24.5568C82.4971 24.7868 82.7421 25.1518 82.8821 25.6518C83.0321 26.1418 83.1071 26.8018 83.1071 27.6318V31.8468L84.1871 31.9818V32.7168H80.617V31.9818L81.547 31.8468V27.6768C81.547 27.0968 81.502 26.6368 81.412 26.2968C81.332 25.9468 81.172 25.6868 80.932 25.5168C80.702 25.3468 80.367 25.2618 79.927 25.2618C79.597 25.2618 79.247 25.3368 78.877 25.4868C78.507 25.6268 78.192 25.7968 77.932 25.9968C78.022 26.3868 78.067 26.9418 78.067 27.6618V31.8468L79.132 31.9818V32.7168H75.502V31.9818L76.492 31.8468V27.6468C76.492 27.0468 76.452 26.5818 76.372 26.2518C76.302 25.9218 76.162 25.6768 75.952 25.5168C75.742 25.3468 75.422 25.2618 74.992 25.2618C74.632 25.2618 74.247 25.3518 73.837 25.5318C73.437 25.7118 73.087 25.9218 72.787 26.1618V31.8468L73.792 31.9818V32.7168H70.297V31.9818Z" fill="url(#paint0_linear_920_1817)"/>
<path d="M2.51785 10.498C4.30353 12.4809 3.74228 14.6631 3.47903 16.8364C2.5537 16.5608 1.89948 15.6041 1.8065 14.4604C1.69223 13.1161 2.00926 11.8457 2.51785 10.498Z" fill="url(#paint1_linear_920_1817)"/>
<path d="M4.42969 17.1132C4.89683 16.2305 5.24747 15.388 5.75606 14.6487C6.38452 13.7435 7.41178 13.5643 8.42784 14.0292C7.52045 16.4164 6.11566 17.3866 4.42969 17.1132Z" fill="url(#paint2_linear_920_1817)"/>
<path d="M2.98658 25.5809C2.6868 25.6103 2.38427 25.5726 2.10083 25.4707C1.81739 25.3688 1.56014 25.2052 1.34766 24.9917C0.774091 24.4607 0.473865 23.7695 0.351758 23.0234C0.198284 22.0813 0.127708 21.1257 0 20.0312C0.896197 20.3472 1.51121 20.7796 1.81816 21.4764C2.20128 22.349 2.47462 23.2688 2.75132 24.1885C2.88127 24.622 2.90704 25.0925 2.98658 25.5809Z" fill="url(#paint3_linear_920_1817)"/>
<path d="M6.8064 20.9745C6.88258 23.038 5.75113 24.9077 4.19287 25.3323C3.86352 22.6784 5.01513 20.8524 6.8064 20.9745Z" fill="url(#paint4_linear_920_1817)"/>
<path d="M5.22273 33.9097C4.19771 34.3802 3.35752 34.2267 2.59688 33.419C1.70068 32.4601 1.25258 31.2625 0.859375 29.9619C1.79926 29.8174 2.53974 30.1132 3.1626 30.7226C4.07896 31.6233 4.67941 32.7334 5.22273 33.9097Z" fill="url(#paint5_linear_920_1817)"/>
<path d="M7.44707 28.0918C7.73161 29.9884 7.90861 31.8009 6.26521 33.2192C5.23235 31.0414 5.5673 28.7527 7.44707 28.0918Z" fill="url(#paint6_linear_920_1817)"/>
<path d="M7.71618 2.51758C8.69191 4.94291 7.60416 6.86525 6.6161 8.8873C5.88346 8.12889 5.67845 7.26966 5.80056 6.34098C5.991 4.8925 6.75949 3.71736 7.71618 2.51758Z" fill="url(#paint7_linear_920_1817)"/>
<path d="M12.0738 8.14111C10.6544 9.70945 9.06481 10.6135 7.54688 9.53693C8.07675 8.74716 8.66712 8.02012 9.53195 7.57426C10.3968 7.12841 11.2829 7.33565 12.0738 8.14111Z" fill="url(#paint8_linear_920_1817)"/>
<path d="M9.94717 40.7274C9.06218 41.7547 8.15478 41.9395 7.14656 41.3783C6.11033 40.8002 5.37097 39.9107 4.65625 38.9305C5.48859 38.3592 6.3635 38.2584 7.18352 38.7546C8.13573 39.3316 9.0028 40.044 9.94717 40.7274Z" fill="url(#paint9_linear_920_1817)"/>
<path d="M10.1412 34.5879C11.052 36.2951 11.63 37.9856 10.5736 39.8318C8.807 37.8568 8.77899 35.7205 10.1412 34.5879Z" fill="url(#paint10_linear_920_1817)"/>
<path d="M16.2252 45.6001C15.8488 46.7674 15.0109 47.3342 13.8469 47.1606C12.7827 47.0015 11.8719 46.4761 10.9746 45.8432C11.5347 45.0108 12.2416 44.547 13.2442 44.6512C14.3062 44.7621 15.2887 45.1139 16.2252 45.6001Z" fill="url(#paint11_linear_920_1817)"/>
<path d="M14.6569 39.7109C16.0135 40.9712 17.0094 42.3637 16.5893 44.3566C14.6748 43.7763 13.6195 41.2759 14.6569 39.7109Z" fill="url(#paint12_linear_920_1817)"/>
<path d="M11.7734 3.55318C12.2215 1.45832 14.5741 -0.206364 16.4785 0.213728C15.7077 1.90306 13.4751 3.48709 11.7734 3.55318Z" fill="url(#paint13_linear_920_1817)"/>
<path d="M99.9921 20.0977C100.025 21.4366 99.9493 22.7215 99.4522 23.9388C99.0014 25.0433 98.1899 25.608 97.1778 25.5809C96.9107 23.4485 98.3962 20.4888 99.9921 20.0977Z" fill="url(#paint14_linear_920_1817)"/>
<path d="M95.9047 25.3332C94.3482 24.9827 93.4161 23.3913 93.2324 21.0041C95.1496 20.7178 96.1493 22.8762 95.9047 25.3332Z" fill="url(#paint15_linear_920_1817)"/>
<path d="M96.6027 16.8266C96.3345 14.5927 95.7811 12.4005 97.5044 10.4766C98.6743 12.9201 98.6585 16.0286 96.6027 16.8266Z" fill="url(#paint16_linear_920_1817)"/>
<path d="M95.4895 17.1015C93.8056 17.3077 92.39 16.1536 91.5977 13.9986C92.4847 13.5117 93.4855 13.6684 94.19 14.4393C94.8662 15.1854 95.228 16.0961 95.4895 17.1015Z" fill="url(#paint17_linear_920_1817)"/>
<path d="M94.8438 33.9692C95.4073 32.7565 96.017 31.6418 96.9446 30.7333C97.5893 30.101 98.3603 29.8576 99.2191 30.0154C98.7581 31.4648 98.3005 32.9007 97.0168 33.8554C96.3574 34.3457 95.6214 34.3783 94.8438 33.9692Z" fill="url(#paint18_linear_920_1817)"/>
<path d="M92.6041 28.1172C94.4604 28.7495 94.8437 30.9935 93.8045 33.2714C92.1432 31.8546 92.3167 30.0242 92.6041 28.1172Z" fill="url(#paint19_linear_920_1817)"/>
<path d="M92.3574 2.46094C94.4346 4.85487 94.8708 7.37616 93.4766 8.72078C92.0001 6.30543 91.476 4.02195 92.3574 2.46094Z" fill="url(#paint20_linear_920_1817)"/>
<path d="M87.9492 8.03556C88.9005 7.07979 89.9543 6.96032 90.9574 7.76731C91.5446 8.23956 92.0304 8.83692 92.5759 9.39257C91.184 10.3878 89.5429 9.86933 87.9492 8.03556Z" fill="url(#paint21_linear_920_1817)"/>
<path d="M95.407 39.0104C94.707 39.9865 93.9666 40.8566 92.9567 41.4472C91.9299 42.0468 91.0215 41.8766 90.166 40.9242C91.1252 39.9887 92.0719 39.0363 93.3996 38.6249C94.0849 38.413 94.742 38.5686 95.407 39.0104Z" fill="url(#paint22_linear_920_1817)"/>
<path d="M89.4715 39.9172C88.5878 38.523 88.6667 36.6486 89.9279 34.6875C91.3267 35.8946 91.1441 38.0812 89.4715 39.9172Z" fill="url(#paint23_linear_920_1817)"/>
<path d="M89.0499 45.9784C88.1843 46.596 87.3086 47.0773 86.31 47.2802C85.1074 47.5247 84.1539 46.9342 83.7695 45.7225C84.8098 45.1894 85.8975 44.7769 87.082 44.76C87.9352 44.7476 88.563 45.2142 89.0499 45.9784Z" fill="url(#paint24_linear_920_1817)"/>
<path d="M85.3883 39.8184C86.3125 41.42 85.5686 43.3597 83.4722 44.4856C82.947 43.0204 83.7506 41.0559 85.3883 39.8184Z" fill="url(#paint25_linear_920_1817)"/>
<path d="M88.3052 3.46374C86.0871 3.15041 84.6354 1.85088 83.4824 0.106145C85.1099 -0.388646 87.4486 0.865801 88.3052 3.46374Z" fill="url(#paint26_linear_920_1817)"/>
<defs>
<linearGradient id="paint0_linear_920_1817" x1="7.73828" y1="19.4365" x2="92.2924" y2="19.4365" gradientUnits="userSpaceOnUse">
<stop stop-color="#BD8436"/>
<stop offset="1" stop-color="#F1C771"/>
</linearGradient>
<linearGradient id="paint1_linear_920_1817" x1="1.7832" y1="13.6672" x2="3.77445" y2="13.6672" gradientUnits="userSpaceOnUse">
<stop stop-color="#BD8436"/>
<stop offset="1" stop-color="#F1C771"/>
</linearGradient>
<linearGradient id="paint2_linear_920_1817" x1="4.42969" y1="15.4697" x2="8.42785" y2="15.4697" gradientUnits="userSpaceOnUse">
<stop stop-color="#BD8436"/>
<stop offset="1" stop-color="#F1C771"/>
</linearGradient>
<linearGradient id="paint3_linear_920_1817" x1="0" y1="22.8109" x2="2.98658" y2="22.8109" gradientUnits="userSpaceOnUse">
<stop stop-color="#BD8436"/>
<stop offset="1" stop-color="#F1C771"/>
</linearGradient>
<linearGradient id="paint4_linear_920_1817" x1="4.13672" y1="23.1505" x2="6.81003" y2="23.1505" gradientUnits="userSpaceOnUse">
<stop stop-color="#BD8436"/>
<stop offset="1" stop-color="#F1C771"/>
</linearGradient>
<linearGradient id="paint5_linear_920_1817" x1="0.859375" y1="32.05" x2="5.22273" y2="32.05" gradientUnits="userSpaceOnUse">
<stop stop-color="#BD8436"/>
<stop offset="1" stop-color="#F1C771"/>
</linearGradient>
<linearGradient id="paint6_linear_920_1817" x1="5.68945" y1="30.6555" x2="7.63288" y2="30.6555" gradientUnits="userSpaceOnUse">
<stop stop-color="#BD8436"/>
<stop offset="1" stop-color="#F1C771"/>
</linearGradient>
<linearGradient id="paint7_linear_920_1817" x1="5.76758" y1="5.70244" x2="8.098" y2="5.70244" gradientUnits="userSpaceOnUse">
<stop stop-color="#BD8436"/>
<stop offset="1" stop-color="#F1C771"/>
</linearGradient>
<linearGradient id="paint8_linear_920_1817" x1="7.54688" y1="8.67519" x2="12.0738" y2="8.67519" gradientUnits="userSpaceOnUse">
<stop stop-color="#BD8436"/>
<stop offset="1" stop-color="#F1C771"/>
</linearGradient>
<linearGradient id="paint9_linear_920_1817" x1="4.65625" y1="40.0628" x2="9.94717" y2="40.0628" gradientUnits="userSpaceOnUse">
<stop stop-color="#BD8436"/>
<stop offset="1" stop-color="#F1C771"/>
</linearGradient>
<linearGradient id="paint10_linear_920_1817" x1="9.17773" y1="37.2098" x2="11.1413" y2="37.2098" gradientUnits="userSpaceOnUse">
<stop stop-color="#BD8436"/>
<stop offset="1" stop-color="#F1C771"/>
</linearGradient>
<linearGradient id="paint11_linear_920_1817" x1="10.9746" y1="45.914" x2="16.2252" y2="45.914" gradientUnits="userSpaceOnUse">
<stop stop-color="#BD8436"/>
<stop offset="1" stop-color="#F1C771"/>
</linearGradient>
<linearGradient id="paint12_linear_920_1817" x1="14.25" y1="42.0338" x2="16.6865" y2="42.0338" gradientUnits="userSpaceOnUse">
<stop stop-color="#BD8436"/>
<stop offset="1" stop-color="#F1C771"/>
</linearGradient>
<linearGradient id="paint13_linear_920_1817" x1="11.7734" y1="1.85081" x2="16.4785" y2="1.85081" gradientUnits="userSpaceOnUse">
<stop stop-color="#BD8436"/>
<stop offset="1" stop-color="#F1C771"/>
</linearGradient>
<linearGradient id="paint14_linear_920_1817" x1="97.1465" y1="22.8398" x2="99.9987" y2="22.8398" gradientUnits="userSpaceOnUse">
<stop stop-color="#BD8436"/>
<stop offset="1" stop-color="#F1C771"/>
</linearGradient>
<linearGradient id="paint15_linear_920_1817" x1="93.2324" y1="23.1559" x2="95.9411" y2="23.1559" gradientUnits="userSpaceOnUse">
<stop stop-color="#BD8436"/>
<stop offset="1" stop-color="#F1C771"/>
</linearGradient>
<linearGradient id="paint16_linear_920_1817" x1="96.3008" y1="13.6516" x2="98.288" y2="13.6516" gradientUnits="userSpaceOnUse">
<stop stop-color="#BD8436"/>
<stop offset="1" stop-color="#F1C771"/>
</linearGradient>
<linearGradient id="paint17_linear_920_1817" x1="91.5977" y1="15.4229" x2="95.4895" y2="15.4229" gradientUnits="userSpaceOnUse">
<stop stop-color="#BD8436"/>
<stop offset="1" stop-color="#F1C771"/>
</linearGradient>
<linearGradient id="paint18_linear_920_1817" x1="94.8438" y1="32.1103" x2="99.2191" y2="32.1103" gradientUnits="userSpaceOnUse">
<stop stop-color="#BD8436"/>
<stop offset="1" stop-color="#F1C771"/>
</linearGradient>
<linearGradient id="paint19_linear_920_1817" x1="92.418" y1="30.6943" x2="94.3714" y2="30.6943" gradientUnits="userSpaceOnUse">
<stop stop-color="#BD8436"/>
<stop offset="1" stop-color="#F1C771"/>
</linearGradient>
<linearGradient id="paint20_linear_920_1817" x1="91.9277" y1="5.59086" x2="94.2839" y2="5.59086" gradientUnits="userSpaceOnUse">
<stop stop-color="#BD8436"/>
<stop offset="1" stop-color="#F1C771"/>
</linearGradient>
<linearGradient id="paint21_linear_920_1817" x1="87.9492" y1="8.56152" x2="92.5759" y2="8.56152" gradientUnits="userSpaceOnUse">
<stop stop-color="#BD8436"/>
<stop offset="1" stop-color="#F1C771"/>
</linearGradient>
<linearGradient id="paint22_linear_920_1817" x1="90.166" y1="40.164" x2="95.407" y2="40.164" gradientUnits="userSpaceOnUse">
<stop stop-color="#BD8436"/>
<stop offset="1" stop-color="#F1C771"/>
</linearGradient>
<linearGradient id="paint23_linear_920_1817" x1="88.8828" y1="37.3023" x2="90.8639" y2="37.3023" gradientUnits="userSpaceOnUse">
<stop stop-color="#BD8436"/>
<stop offset="1" stop-color="#F1C771"/>
</linearGradient>
<linearGradient id="paint24_linear_920_1817" x1="83.7695" y1="46.0472" x2="89.0499" y2="46.0472" gradientUnits="userSpaceOnUse">
<stop stop-color="#BD8436"/>
<stop offset="1" stop-color="#F1C771"/>
</linearGradient>
<linearGradient id="paint25_linear_920_1817" x1="83.3125" y1="42.152" x2="85.7793" y2="42.152" gradientUnits="userSpaceOnUse">
<stop stop-color="#BD8436"/>
<stop offset="1" stop-color="#F1C771"/>
</linearGradient>
<linearGradient id="paint26_linear_920_1817" x1="83.4824" y1="1.73187" x2="88.3052" y2="1.73187" gradientUnits="userSpaceOnUse">
<stop stop-color="#BD8436"/>
<stop offset="1" stop-color="#F1C771"/>
</linearGradient>
</defs>
</svg>
