<svg width="18" height="18" viewBox="0 0 18 18" fill="none" xmlns="http://www.w3.org/2000/svg">
<path d="M10.6982 13.7788C10.9353 13.0553 11.0539 12.6935 11.2961 12.4448C11.4111 12.3266 11.5448 12.2286 11.6914 12.155C12.0001 12 12.3751 12 13.125 12C13.875 12 14.25 12 14.5586 12.155C14.7053 12.2286 14.8389 12.3266 14.954 12.4448C15.1962 12.6935 15.3147 13.0553 15.5519 13.7788L15.7967 14.5256C16.092 15.4266 16.2396 15.877 16.0189 16.1885C15.7981 16.5 15.3312 16.5 14.3973 16.5H11.8527C10.9188 16.5 10.4519 16.5 10.2312 16.1885C10.0104 15.877 10.158 15.4266 10.4534 14.5256L10.6982 13.7788Z" stroke="black"/>
<path d="M6.57316 7.77878C6.81031 7.05529 6.92888 6.69353 7.17107 6.44474C7.28614 6.32653 7.41974 6.2286 7.56638 6.15497C7.87508 6 8.25008 6 9 6C9.74993 6 10.1249 6 10.4336 6.15497C10.5803 6.2286 10.7138 6.32653 10.829 6.44474C11.0711 6.69353 11.1897 7.05529 11.4269 7.77878L11.6717 8.52563C11.967 9.4266 12.1146 9.87705 11.8939 10.1885C11.6732 10.5 11.2062 10.5 10.2723 10.5H7.7277C6.79382 10.5 6.32689 10.5 6.10613 10.1885C5.88537 9.87705 6.03303 9.4266 6.32834 8.52563L6.57316 7.77878Z" stroke="black"/>
<path d="M2.44815 13.7788C2.6853 13.0553 2.80388 12.6935 3.04608 12.4448C3.16114 12.3266 3.29474 12.2286 3.4414 12.155C3.75009 12 4.12506 12 4.875 12C5.62494 12 5.99991 12 6.3086 12.155C6.45526 12.2286 6.58886 12.3266 6.70392 12.4448C6.94611 12.6935 7.06469 13.0553 7.30184 13.7788L7.54666 14.5256C7.84194 15.4266 7.98961 15.877 7.76889 16.1885C7.54809 16.5 7.08118 16.5 6.14732 16.5H3.60267C2.66881 16.5 2.20188 16.5 1.98113 16.1885C1.76037 15.877 1.90803 15.4266 2.20334 14.5256L2.44815 13.7788Z" stroke="black"/>
<path d="M9 1.5V3M5.625 2.625L6.75 3.75M12.375 2.625L11.25 3.75" stroke="black" stroke-width="1.5" stroke-linecap="round"/>
</svg>
