<svg width="24" height="24" viewBox="0 0 24 24" fill="none" xmlns="http://www.w3.org/2000/svg">
<path fill-rule="evenodd" clip-rule="evenodd" d="M13.2281 3.42139C12.877 3.14828 12.4449 3 12.0001 3C11.5553 3 11.1232 3.14828 10.7721 3.42139L2.3881 9.94139C1.6361 10.5284 2.0501 11.7334 3.0031 11.7334H4.0001V19.7334C4.0001 20.2638 4.21082 20.7725 4.58589 21.1476C4.96096 21.5227 5.46967 21.7334 6.0001 21.7334H18.0001C18.5305 21.7334 19.0392 21.5227 19.4143 21.1476C19.7894 20.7725 20.0001 20.2638 20.0001 19.7334V11.7334H20.9971C21.9491 11.7334 22.3651 10.5284 21.6121 9.94239L13.2281 3.42139ZM13.0001 19.7334V13.7334C13.0001 13.4682 12.8947 13.2138 12.7072 13.0263C12.5197 12.8387 12.2653 12.7334 12.0001 12.7334C11.7349 12.7334 11.4805 12.8387 11.293 13.0263C11.1055 13.2138 11.0001 13.4682 11.0001 13.7334V19.7334H6.0001V10.7434C6.0001 10.4264 5.8541 10.1434 5.6251 9.95839L12.0001 5.00039L18.3751 9.95839C18.2579 10.0529 18.1634 10.1725 18.0986 10.3083C18.0337 10.4442 18 10.5928 18.0001 10.7434V19.7334H13.0001Z" fill="#949494"/>
</svg>
