<svg width="18" height="18" viewBox="0 0 18 18" fill="none" xmlns="http://www.w3.org/2000/svg">
<path d="M8.60227 2.88076C8.82195 2.66109 9.17805 2.66109 9.39772 2.88076L15.9148 9.39774C16.1345 9.61741 16.4906 9.61741 16.7102 9.39774C16.9299 9.17806 16.9299 8.82196 16.7102 8.60229L10.1932 2.08526C9.53422 1.42625 8.46577 1.42625 7.80675 2.08526L1.28975 8.60229C1.07008 8.82196 1.07008 9.17806 1.28975 9.39774C1.50942 9.61741 1.86558 9.61741 2.08525 9.39774L8.60227 2.88076Z" fill="black"/>
<path d="M14.5879 10.5095V14.906C14.5879 15.3513 14.2265 15.7126 13.7812 15.7126H11.2871V12.3748C11.287 11.7328 10.7669 11.2126 10.125 11.2126H7.875C7.23306 11.2126 6.71302 11.7328 6.71289 12.3748V15.7126H4.21875C3.77348 15.7126 3.41211 15.3513 3.41211 14.906V10.5095L9 4.92163L14.5879 10.5095Z" stroke="black" stroke-width="1.2"/>
</svg>
