<svg width="25" height="24" viewBox="0 0 25 24" fill="none" xmlns="http://www.w3.org/2000/svg">
<path fill-rule="evenodd" clip-rule="evenodd" d="M13.2968 2.68799C12.9439 2.41488 12.5096 2.2666 12.0624 2.2666C11.6153 2.2666 11.181 2.41488 10.828 2.68799L2.40038 9.20799C1.64446 9.79499 2.06062 11 3.01858 11H4.02077V19C4.02077 19.5304 4.23259 20.0391 4.60961 20.4142C4.98664 20.7893 5.498 21 6.03119 21H11.0572V14C11.0572 13.7348 11.1631 13.4804 11.3517 13.2929C11.5402 13.1053 11.7958 13 12.0624 13C12.329 13 12.5847 13.1053 12.7732 13.2929C12.9617 13.4804 13.0677 13.7348 13.0677 14V21H18.0937C18.6269 21 19.1382 20.7893 19.5153 20.4142C19.8923 20.0391 20.1041 19.5304 20.1041 19V11H21.1063C22.0633 11 22.4814 9.79499 21.7245 9.20899L13.2968 2.68799Z" fill="#001230"/>
</svg>
