<svg width="9" height="17" viewBox="0 0 9 17" fill="none" xmlns="http://www.w3.org/2000/svg">
<path d="M4.63504 13.518C5.03104 13.482 5.37904 13.398 5.67904 13.266C5.97904 13.128 6.23104 12.954 6.43504 12.744C6.64504 12.534 6.80104 12.291 6.90304 12.015C7.01104 11.733 7.06504 11.424 7.06504 11.088C7.06504 10.788 7.00804 10.53 6.89404 10.314C6.78604 10.098 6.63604 9.91198 6.44404 9.75598C6.25204 9.59398 6.02704 9.45898 5.76904 9.35098C5.51104 9.23698 5.23504 9.13198 4.94104 9.03598L4.63504 13.518ZM4.33804 3.11398C3.94804 3.14998 3.60904 3.22798 3.32104 3.34798C3.03904 3.46798 2.80504 3.61798 2.61904 3.79798C2.43304 3.97798 2.29504 4.18198 2.20504 4.40998C2.11504 4.63198 2.07004 4.86598 2.07004 5.11198C2.07004 5.39998 2.12104 5.65198 2.22304 5.86798C2.32504 6.07798 2.46604 6.26398 2.64604 6.42598C2.82604 6.58798 3.03604 6.72898 3.27604 6.84898C3.51604 6.96898 3.77704 7.07698 4.05904 7.17298L4.33804 3.11398ZM5.04904 7.48798C5.48104 7.62598 5.90704 7.77298 6.32704 7.92898C6.74704 8.08498 7.12504 8.28598 7.46104 8.53198C7.79704 8.77798 8.06704 9.08698 8.27104 9.45898C8.48104 9.82498 8.58604 10.284 8.58604 10.836C8.58604 11.376 8.49604 11.883 8.31604 12.357C8.13604 12.831 7.87204 13.248 7.52404 13.608C7.18204 13.968 6.75904 14.262 6.25504 14.49C5.75704 14.712 5.18704 14.844 4.54504 14.886L4.43704 16.461C4.43104 16.575 4.38604 16.674 4.30204 16.758C4.21804 16.848 4.11304 16.893 3.98704 16.893H3.39304L3.52804 14.868C2.80204 14.796 2.13904 14.616 1.53904 14.328C0.945042 14.034 0.432042 13.662 4.20362e-05 13.212L0.486042 12.474C0.534042 12.408 0.594042 12.354 0.666042 12.312C0.738042 12.27 0.816042 12.249 0.900042 12.249C1.01404 12.249 1.14304 12.306 1.28704 12.42C1.43104 12.534 1.60804 12.663 1.81804 12.807C2.03404 12.951 2.28604 13.092 2.57404 13.23C2.86804 13.368 3.21904 13.461 3.62704 13.509L3.95104 8.72998C3.53104 8.60398 3.11704 8.46298 2.70904 8.30698C2.30704 8.15098 1.94404 7.94398 1.62004 7.68598C1.30204 7.42798 1.04404 7.10698 0.846042 6.72298C0.654042 6.33898 0.558042 5.85598 0.558042 5.27398C0.558042 4.83598 0.642042 4.40998 0.810042 3.99598C0.984042 3.57598 1.23604 3.20398 1.56604 2.87998C1.89604 2.55598 2.30104 2.29198 2.78104 2.08798C3.26104 1.87798 3.81004 1.76098 4.42804 1.73698L4.51804 0.440976C4.52404 0.326976 4.56604 0.224976 4.64404 0.134976C4.72804 0.044976 4.83604 -2.39611e-05 4.96804 -2.39611e-05H5.56204L5.44504 1.77298C6.06904 1.85098 6.60904 2.01298 7.06504 2.25898C7.52704 2.50498 7.93504 2.80498 8.28904 3.15898L7.90204 3.75298C7.78204 3.93298 7.64404 4.02298 7.48804 4.02298C7.40404 4.02298 7.29904 3.98698 7.17304 3.91498C7.05304 3.83698 6.90604 3.74698 6.73204 3.64498C6.56404 3.54298 6.36304 3.44398 6.12904 3.34798C5.90104 3.25198 5.64004 3.17998 5.34604 3.13198L5.04904 7.48798Z" fill="#6C757D"/>
</svg>
