<svg width="13" height="15" viewBox="0 0 13 15" fill="none" xmlns="http://www.w3.org/2000/svg">
<path d="M11.6636 7.83361C12.1909 7.07771 12.5001 6.15835 12.5001 5.16684C12.5001 2.58942 10.4107 0.5 7.83322 0.5C5.25579 0.5 3.16638 2.58941 3.16638 5.16684C3.16638 5.8826 3.32751 6.56069 3.61549 7.16692" stroke="#6C757D" stroke-linecap="round" stroke-linejoin="round"/>
<path d="M7.83387 3.16669C7.09744 3.16669 6.50049 3.61442 6.50049 4.16673C6.50049 4.71904 7.09744 5.16677 7.83387 5.16677C8.5703 5.16677 9.16726 5.6145 9.16726 6.1668C9.16726 6.71909 8.5703 7.16684 7.83387 7.16684M7.83387 3.16669C8.41443 3.16669 8.90831 3.44497 9.09139 3.83338M7.83387 3.16669V2.5M7.83387 7.16684C7.25332 7.16684 6.75943 6.88856 6.57636 6.50015M7.83387 7.16684V7.83353" stroke="#6C757D" stroke-linecap="round"/>
<path d="M0.500122 8.5H2.09673C2.29284 8.5 2.48625 8.5442 2.66165 8.62907L4.02302 9.28776C4.19842 9.37263 4.39184 9.41677 4.58794 9.41677H5.28304C5.95533 9.41677 6.50035 9.94419 6.50035 10.5947C6.50035 10.621 6.48235 10.6441 6.45621 10.6513L4.7622 11.1198C4.45832 11.2038 4.13293 11.1745 3.85025 11.0377L2.39493 10.3336M6.50035 10.1667L9.56233 9.22596C10.1052 9.05682 10.6919 9.25736 11.0319 9.72825C11.2778 10.0687 11.1777 10.5562 10.8195 10.7629L5.80892 13.6539C5.49024 13.8377 5.11426 13.8826 4.76372 13.7786L0.500122 12.5134" stroke="#6C757D" stroke-linecap="round" stroke-linejoin="round"/>
</svg>
