<svg width="14" height="15" viewBox="0 0 14 15" fill="none" xmlns="http://www.w3.org/2000/svg">
<path d="M0.599976 3.59961C0.599976 3.20178 0.758011 2.82025 1.03932 2.53895C1.32062 2.25764 1.70215 2.09961 2.09998 2.09961H11.1C11.4978 2.09961 11.8793 2.25764 12.1606 2.53895C12.4419 2.82025 12.6 3.20178 12.6 3.59961V12.5996C12.6 12.9974 12.4419 13.379 12.1606 13.6603C11.8793 13.9416 11.4978 14.0996 11.1 14.0996H2.09998C1.70215 14.0996 1.32062 13.9416 1.03932 13.6603C0.758011 13.379 0.599976 12.9974 0.599976 12.5996V3.59961Z" stroke="#6C757D" stroke-width="1.2" stroke-linecap="round" stroke-linejoin="round"/>
<path d="M9.60022 0.599609V3.59961" stroke="#6C757D" stroke-width="1.2" stroke-linecap="round" stroke-linejoin="round"/>
<path d="M3.59998 0.599609V3.59961" stroke="#6C757D" stroke-width="1.2" stroke-linecap="round" stroke-linejoin="round"/>
<path d="M0.599976 6.59961H12.6" stroke="#6C757D" stroke-width="1.2" stroke-linecap="round" stroke-linejoin="round"/>
<path d="M2.84961 8.84961H2.85855" stroke="#6C757D" stroke-width="1.2" stroke-linecap="round" stroke-linejoin="round"/>
<path d="M5.1084 8.84961H5.1134" stroke="#6C757D" stroke-width="1.2" stroke-linecap="round" stroke-linejoin="round"/>
<path d="M7.35828 8.84961H7.36328" stroke="#6C757D" stroke-width="1.2" stroke-linecap="round" stroke-linejoin="round"/>
<path d="M9.61084 8.84961H9.61584" stroke="#6C757D" stroke-width="1.2" stroke-linecap="round" stroke-linejoin="round"/>
<path d="M7.35962 11.0996H7.36462" stroke="#6C757D" stroke-width="1.2" stroke-linecap="round" stroke-linejoin="round"/>
<path d="M2.85718 11.0996H2.86218" stroke="#6C757D" stroke-width="1.2" stroke-linecap="round" stroke-linejoin="round"/>
<path d="M5.1084 11.0996H5.1134" stroke="#6C757D" stroke-width="1.2" stroke-linecap="round" stroke-linejoin="round"/>
</svg>
