<svg width="20" height="15" viewBox="0 0 20 15" fill="none" xmlns="http://www.w3.org/2000/svg">
<path d="M18.5957 0.25C18.9014 0.250122 19.1946 0.371261 19.4111 0.586914C19.6278 0.80288 19.75 1.09658 19.75 1.40234V5.91113C19.75 6.21689 19.6278 6.5106 19.4111 6.72656C19.1947 6.9422 18.9014 7.06335 18.5957 7.06348C18.2898 7.06348 17.9959 6.94232 17.7793 6.72656C17.5626 6.5106 17.4404 6.21689 17.4404 5.91113V4.18066L11.2686 10.333L11.2695 10.334C11.1623 10.441 11.0346 10.5261 10.8945 10.584C10.7544 10.6419 10.6038 10.6719 10.4521 10.6719C10.3007 10.6718 10.1507 10.6418 10.0107 10.584C9.87061 10.5261 9.74302 10.441 9.63574 10.334L6.83301 7.53809L0.676758 13.6768L0.25 14.1025V10.8457L0.323242 10.7725L6.0166 5.09668C6.12388 4.98962 6.25147 4.90459 6.3916 4.84668C6.53159 4.78886 6.68153 4.75883 6.83301 4.75879C6.98465 4.75879 7.13526 4.78877 7.27539 4.84668C7.41547 4.90458 7.54314 4.98965 7.65039 5.09668L10.4521 7.8916L15.8076 2.55371H14.0713C13.7653 2.55367 13.4715 2.4327 13.2549 2.2168C13.0384 2.00094 12.9171 1.7079 12.917 1.40234C12.917 1.0966 13.0383 0.802875 13.2549 0.586914C13.4715 0.371008 13.7653 0.250037 14.0713 0.25H18.5957Z" fill="white" stroke="white" stroke-width="0.5"/>
</svg>
