<svg width="21" height="21" viewBox="0 0 21 21" fill="none" xmlns="http://www.w3.org/2000/svg">
<path d="M12.1501 15.9506C16.3477 15.9506 19.7504 12.5479 19.7504 8.35031C19.7504 4.15277 16.3477 0.75 12.1501 0.75C7.95258 0.75 4.5498 4.15277 4.5498 8.35031C4.5498 12.5479 7.95258 15.9506 12.1501 15.9506Z" stroke="white" stroke-width="1.5" stroke-linecap="round"/>
<path d="M1.84879 9.30035C1.15399 10.3621 0.75 11.6313 0.75 12.9949C0.75 16.726 3.77472 19.7508 7.50588 19.7508C8.86951 19.7508 10.1387 19.3468 11.2004 18.652" stroke="white" stroke-width="1.5" stroke-linecap="round"/>
<path d="M13.8328 6.64514C13.6274 5.77858 12.582 4.99663 11.3271 5.58162C10.0722 6.16661 9.87289 8.04878 11.7711 8.24872C12.629 8.3391 13.1883 8.14386 13.7005 8.69614C14.2126 9.2484 14.3078 10.7842 12.9986 11.1982C11.6895 11.6121 10.3931 10.9653 10.252 10.047M12.137 4.55408V5.3797M12.137 11.3256V12.1544" stroke="white" stroke-width="1.5" stroke-linecap="round" stroke-linejoin="round"/>
</svg>
