<svg width="21" height="21" viewBox="0 0 21 21" fill="none" xmlns="http://www.w3.org/2000/svg">
<path d="M10.25 19.75C15.4967 19.75 19.75 15.4967 19.75 10.25C19.75 5.00329 15.4967 0.75 10.25 0.75C5.00329 0.75 0.75 5.00329 0.75 10.25C0.75 15.4967 5.00329 19.75 10.25 19.75Z" stroke="white" stroke-width="1.5"/>
<path d="M10.257 8.83281C9.47005 8.83281 8.83203 9.47083 8.83203 10.2578C8.83203 11.0448 9.47005 11.6828 10.257 11.6828C11.044 11.6828 11.682 11.0448 11.682 10.2578C11.682 9.47083 11.044 8.83281 10.257 8.83281ZM10.257 8.83281V5.49908M13.1136 13.1188L11.2624 11.2677" stroke="white" stroke-width="1.5" stroke-linecap="round" stroke-linejoin="round"/>
</svg>
