<svg width="21" height="21" viewBox="0 0 21 21" fill="none" xmlns="http://www.w3.org/2000/svg">
<path d="M20 9.29476C19.7096 7.20502 18.7401 5.26873 17.241 3.78416C15.7419 2.29959 13.7962 1.3491 11.7037 1.0791C9.61126 0.809103 7.48805 1.23458 5.66118 2.28999C3.8343 3.34539 2.40511 4.97218 1.59375 6.91976M1 2.16976V6.91976H5.75" stroke="white" stroke-width="2" stroke-linecap="round" stroke-linejoin="round"/>
<path d="M1 11.6696C1.29041 13.7593 2.25986 15.6956 3.75899 17.1802C5.25813 18.6647 7.20379 19.6152 9.29627 19.8852C11.3887 20.1552 13.5119 19.7297 15.3388 18.6743C17.1657 17.6189 18.5949 15.9921 19.4062 14.0446M20 18.7946V14.0446H15.25" stroke="white" stroke-width="2" stroke-linecap="round" stroke-linejoin="round"/>
</svg>
