<svg width="18" height="18" viewBox="0 0 18 18" fill="none" xmlns="http://www.w3.org/2000/svg">
<path d="M0.5625 14.6248C0.5625 15.3621 0.589875 15.8721 0.625875 16.2261C0.70125 16.9723 1.30013 17.4002 1.956 17.4223C2.30389 17.4331 2.65194 17.4381 3 17.4373C3.44513 17.4373 3.78638 17.431 4.044 17.4223C4.69988 17.4002 5.29875 16.9723 5.37413 16.2261C5.41013 15.8721 5.4375 15.3621 5.4375 14.6248C5.4375 13.8876 5.41012 13.3776 5.3745 13.0236C5.29875 12.2773 4.6995 11.8495 4.044 11.8273C3.69611 11.8166 3.34806 11.8116 3 11.8123C2.65194 11.8116 2.30389 11.8166 1.956 11.8273C1.30013 11.8495 0.70125 12.2773 0.625875 13.0236C0.589875 13.3776 0.5625 13.8876 0.5625 14.6248ZM12.5625 11.9998C12.5625 14.1321 12.612 15.3426 12.6615 16.0221C12.7163 16.7758 13.2667 17.3638 14.0497 17.4118C14.2987 17.4268 14.6111 17.4373 15 17.4373C15.3889 17.4373 15.7013 17.4268 15.9503 17.4118C16.7332 17.3638 17.2838 16.7758 17.3385 16.0221C17.388 15.3426 17.4375 14.1321 17.4375 11.9998C17.4375 9.86759 17.388 8.65709 17.3385 7.97759C17.2838 7.22384 16.7332 6.63584 15.9503 6.58784C15.6338 6.56979 15.3169 6.56128 15 6.56234C14.6111 6.56234 14.2987 6.57284 14.0497 6.58784C13.2667 6.63584 12.7163 7.22384 12.6615 7.97759C12.612 8.65709 12.5625 9.86759 12.5625 11.9998ZM6.5625 13.4998C6.5625 14.779 6.59963 15.5863 6.642 16.0937C6.70687 16.8617 7.2945 17.3863 8.03738 17.419C8.28638 17.4298 8.60213 17.4373 9 17.4373C9.3975 17.4373 9.71362 17.4298 9.96262 17.4186C10.7051 17.3863 11.2931 16.8617 11.3576 16.0937C11.4004 15.5863 11.4375 14.779 11.4375 13.4998C11.4375 12.2207 11.4004 11.4133 11.358 10.906C11.2931 10.138 10.7055 9.61334 9.96262 9.58072C9.64192 9.56761 9.32097 9.56149 9 9.56234C8.6025 9.56234 8.28638 9.56984 8.03738 9.58109C7.29488 9.61334 6.70687 10.138 6.64237 10.906C6.59962 11.4133 6.5625 12.2207 6.5625 13.4998Z" fill="white"/>
<path d="M15.8142 0.571697C14.834 0.535012 13.8528 0.614312 12.8911 0.807947C12.14 0.961697 11.9364 1.86507 12.4347 2.36307L13.1064 3.03507C12.8926 3.22932 12.6159 3.48432 12.3039 3.7817C11.5767 4.47432 10.6426 5.40995 9.84198 6.36132C9.83475 6.36908 9.82589 6.37512 9.81602 6.37901C9.80616 6.38291 9.79556 6.38455 9.78498 6.38382C9.77556 6.38356 9.76628 6.38152 9.75761 6.37782C9.75388 6.37554 9.75058 6.37262 9.74786 6.3692C9.34148 5.7981 8.91868 5.23886 8.47998 4.6922C8.01686 4.11957 7.18886 3.9722 6.55773 4.40007C5.65548 5.01207 3.78161 6.42207 1.68536 8.81907C1.55836 8.96457 1.43036 9.1137 1.30136 9.26645C1.17321 9.41861 1.11076 9.61546 1.12774 9.81367C1.14472 10.0119 1.23975 10.1952 1.39192 10.3234C1.54409 10.4515 1.74093 10.514 1.93915 10.497C2.13736 10.48 2.32071 10.385 2.44886 10.2328C2.57136 10.0873 2.69336 9.9452 2.81486 9.80645C4.77011 7.57032 6.50936 6.2507 7.34711 5.67732C7.75502 6.18753 8.14867 6.70898 8.52761 7.24107C9.12686 8.08032 10.3512 8.08557 10.9895 7.32732C11.7395 6.43595 12.6294 5.54307 13.3385 4.8677C13.6118 4.60723 13.8884 4.35034 14.1684 4.09707L14.8872 4.81557C15.3852 5.31395 16.2882 5.11032 16.4424 4.3592C16.7037 3.0857 16.7011 1.9667 16.6786 1.43607C16.6698 1.20964 16.5759 0.994856 16.4157 0.834622C16.2555 0.674388 16.0407 0.580496 15.8142 0.571697Z" fill="white"/>
</svg>
