<svg width="18" height="19" viewBox="0 0 18 19" fill="none" xmlns="http://www.w3.org/2000/svg">
<path d="M0 11.3062H0.600314C0.0571728 14.9216 3.72773 17.1021 5.15636 17.8051V18.6355H9.7923V17.8051C11.221 17.1016 14.8915 14.9217 14.3478 11.3062H14.9484V9.81445H0V11.3062ZM1.87652 11.9114C1.87936 11.7778 1.91832 11.6719 1.93281 11.5798C1.97378 11.3967 2.00335 11.2932 2.00335 11.2932C2.00335 11.2932 2.03179 11.3967 2.07046 11.5798C2.09234 11.6697 2.10345 11.7863 2.14129 11.9063C2.18221 12.0246 2.22827 12.1542 2.26782 12.2918C2.31559 12.4289 2.39837 12.5757 2.45637 12.7321C2.52005 12.8873 2.62784 13.0363 2.70459 13.2013C2.79476 13.3611 2.91473 13.5129 3.01087 13.6795C3.13089 13.8337 3.23863 13.9986 3.36972 14.1494C3.49601 14.3029 3.61373 14.4633 3.75108 14.6055C3.88447 14.7511 4.00899 14.9023 4.14375 15.0366C4.40279 15.3147 4.65899 15.5655 4.87628 15.7873C5.32358 16.2343 5.62158 16.5306 5.62158 16.5306C5.62158 16.5306 5.19875 16.4231 4.63682 16.107C4.35619 15.9483 4.03939 15.7435 3.72773 15.4842C3.40751 15.2345 3.10867 14.916 2.82687 14.5804C2.69069 14.4104 2.57351 14.2205 2.45011 14.0436C2.34119 13.8542 2.24393 13.6626 2.15891 13.4732C2.08612 13.2759 2.00878 13.0904 1.96898 12.9032C1.93115 12.7133 1.88993 12.5404 1.87941 12.3703C1.87113 12.1998 1.87397 12.045 1.87652 11.9114Z" fill="white"/>
<path d="M16.2404 1.75282C15.7626 1.27253 15.0409 0.542847 14.4967 0C13.3535 0.387874 12.4276 1.60382 12.406 2.76573C12.3833 3.96176 9.9668 5.32984 9.9668 5.32984L9.97135 5.3341C9.95711 5.34379 9.94291 5.35373 9.93097 5.36596C9.64658 5.64806 10.022 6.4895 10.7704 7.24532C11.5188 8.00061 12.3571 8.38447 12.6421 8.10267C12.6608 8.08392 12.6756 8.0637 12.6881 8.04099L12.6892 8.04212C12.6892 8.04212 14.0479 5.63553 15.2428 5.59147C16.1755 5.55535 17.6172 4.63403 18 3.48974C17.4552 2.94572 16.722 2.22827 16.2404 1.75282ZM10.6276 6.24377C10.4951 6.11156 10.4451 5.94777 10.5156 5.87665C10.585 5.80616 10.7499 5.8559 10.883 5.98757C11.0144 6.11895 11.0644 6.28332 10.9939 6.35386C10.9234 6.42434 10.7601 6.37398 10.6276 6.24377ZM11.2816 7.21683C11.2117 7.28737 11.0479 7.23705 10.9154 7.10567C10.7829 6.974 10.7329 6.81021 10.8034 6.73997C10.8733 6.66889 11.0377 6.71951 11.1696 6.85006C11.3021 6.98281 11.3522 7.14635 11.2816 7.21683ZM12.017 7.37127C11.9465 7.44151 11.7815 7.39148 11.649 7.25981C11.5165 7.12843 11.4665 6.96465 11.5369 6.89411C11.6064 6.82299 11.7713 6.87365 11.9044 7.00474C12.0352 7.13641 12.0864 7.30073 12.017 7.37127ZM17.1958 3.76097C17.1566 3.82553 17.1071 3.90429 17.0502 3.99328C16.9934 4.08428 16.9086 4.16989 16.8199 4.2694C16.775 4.31659 16.7329 4.37234 16.6771 4.42012C16.6208 4.46393 16.5611 4.5094 16.5008 4.55605C16.3836 4.65958 16.2346 4.73011 16.0822 4.80799C15.9252 4.87025 15.758 4.93854 15.5817 4.96409C15.4088 5.00134 15.2319 5.00961 15.079 5.03688C14.9561 5.06786 14.8043 5.14011 14.665 5.2152C14.5239 5.29655 14.3829 5.37076 14.2532 5.45916C14.1196 5.54076 13.9944 5.62637 13.8761 5.70768C13.7544 5.78703 13.6492 5.87376 13.5468 5.94768C13.4416 6.02046 13.3603 6.09555 13.2772 6.1587C13.1953 6.22096 13.1271 6.28097 13.0765 6.33726C12.969 6.44275 12.9047 6.49992 12.9047 6.49992C12.9047 6.49992 12.9451 6.42371 13.0241 6.29546C13.0622 6.23031 13.1134 6.15752 13.1828 6.07421C13.2488 5.99149 13.321 5.88938 13.4154 5.80205C13.507 5.70964 13.6013 5.60185 13.7185 5.5086C13.8305 5.41021 13.9488 5.30414 14.0825 5.21114C14.2133 5.11192 14.3544 5.01578 14.5039 4.92792C14.6586 4.84289 14.8105 4.75615 15.0203 4.70158C15.2029 4.67343 15.3689 4.67113 15.5248 4.63956C15.6818 4.61768 15.8285 4.57617 15.9707 4.53011C16.106 4.46784 16.247 4.42433 16.3619 4.34327C16.4814 4.27391 16.5974 4.20704 16.6901 4.12314C16.7828 4.04213 16.8834 3.98153 16.9563 3.90928C17.0291 3.8365 17.0922 3.77252 17.1445 3.72073C17.2503 3.61525 17.3174 3.55695 17.3174 3.55695C17.3174 3.55695 17.2754 3.63272 17.1958 3.76097Z" fill="white"/>
<path d="M9.26892 6.87891C9.50211 6.87891 9.6915 7.04724 9.6915 7.25513C9.6915 7.46272 9.50211 7.63135 9.26892 7.63135C9.03572 7.63135 8.84668 7.46272 8.84668 7.25513C8.84668 7.04724 9.03572 6.87891 9.26892 6.87891Z" fill="white"/>
<path d="M10.6622 7.97852C10.8954 7.97852 11.0848 8.14685 11.0848 8.35445C11.0848 8.56233 10.8954 8.73091 10.6622 8.73091C10.429 8.73091 10.2402 8.56228 10.2402 8.35445C10.2402 8.14685 10.4291 7.97852 10.6622 7.97852Z" fill="white"/>
<path d="M8.91994 9.39307C9.15349 9.39307 9.34282 9.22463 9.34282 9.01685C9.34282 8.80907 9.15349 8.64062 8.91994 8.64062C8.6864 8.64062 8.49707 8.80907 8.49707 9.01685C8.49707 9.22463 8.6864 9.39307 8.91994 9.39307Z" fill="white"/>
</svg>
