<svg width="18" height="18" viewBox="0 0 18 18" fill="none" xmlns="http://www.w3.org/2000/svg">
<path d="M8.94915 14.1233C8.66688 14.4021 8.31092 14.5947 7.92306 14.6784C7.51193 14.7685 7.08522 14.759 6.67851 14.6507C6.27179 14.5424 5.89685 14.3385 5.58491 14.056C4.79851 13.3895 4.21558 12.5151 3.90279 11.5328C3.4064 10.1699 3.33888 8.68782 3.70933 7.28547C3.85253 6.74674 4.10441 6.24299 4.44947 5.80519C4.64583 5.53634 4.89346 5.309 5.17808 5.13628C5.46271 4.96357 5.77871 4.8489 6.10785 4.79886C6.43699 4.74883 6.77277 4.76443 7.09585 4.84476C7.41894 4.92509 7.72294 5.06855 7.99033 5.2669L8.32677 5.51082C8.33291 5.24645 8.35254 4.98258 8.38563 4.72022C8.46195 4.29993 8.67945 3.9183 9.00215 3.63843C9.32485 3.35855 9.73342 3.1972 10.1603 3.18109C10.3276 3.16994 10.4925 3.22568 10.6186 3.33609C10.7448 3.4465 10.822 3.60252 10.8331 3.76982C10.8443 3.93711 10.7885 4.102 10.6781 4.22818C10.5677 4.35436 10.4117 4.43153 10.2444 4.44268C10.1538 4.44098 10.0638 4.45858 9.98051 4.4943C9.89721 4.53001 9.82245 4.58303 9.76121 4.64984C9.69996 4.71665 9.65363 4.79573 9.62527 4.88182C9.59692 4.96791 9.5872 5.05904 9.59676 5.14917V5.52766L9.84067 5.35943C10.1881 5.07547 10.6037 4.88726 11.0463 4.81349C11.4889 4.73973 11.9431 4.78296 12.3639 4.9389C12.9617 5.18772 13.4571 5.63266 13.7684 6.20049C14.2995 7.14736 14.5394 8.22986 14.4581 9.31243C14.4243 10.5311 14.0798 11.721 13.4572 12.7692C13.1123 13.3687 12.6312 13.8787 12.0527 14.2578C11.6007 14.5684 11.0599 14.7233 10.512 14.699C9.96418 14.6747 9.43914 14.4726 9.01642 14.1233H8.94915Z" fill="white"/>
<path d="M1.50444 1.49272V4.7427C1.50578 4.9115 1.44936 5.0757 1.34456 5.20803C1.23976 5.34036 1.09286 5.43288 0.928241 5.47024C0.763621 5.5076 0.591195 5.48754 0.439535 5.41342C0.287875 5.33929 0.166099 5.21555 0.0944441 5.06271C0.0444641 4.9456 0.0173246 4.82002 0.014458 4.69272V0.782734C0.0052969 0.677999 0.0191787 0.572508 0.0551377 0.473715C0.0910967 0.374921 0.148246 0.285209 0.222587 0.210868C0.296928 0.136527 0.38664 0.0793779 0.485433 0.043419C0.584227 0.00745999 0.689718 -0.00642185 0.794453 0.00273924H4.70444C4.80527 -0.00419652 4.90644 0.00985807 5.00155 0.0440598C5.09666 0.0782616 5.18363 0.131844 5.25695 0.201408C5.33028 0.270971 5.38836 0.355023 5.42752 0.448202C5.46667 0.541381 5.48605 0.641667 5.48443 0.742726C5.48605 0.845096 5.46638 0.946675 5.42672 1.04106C5.38706 1.13545 5.32827 1.2206 5.25402 1.29109C5.17977 1.36158 5.09168 1.4159 4.99536 1.45061C4.89904 1.48531 4.79657 1.49965 4.69443 1.49272H1.50444Z" fill="white"/>
<path d="M16.5036 1.49248H13.2636C13.0876 1.49449 12.9169 1.43285 12.7827 1.31893C12.6486 1.20501 12.5601 1.04647 12.5336 0.87249C12.5004 0.700832 12.5308 0.522952 12.6191 0.372065C12.7075 0.221178 12.8477 0.107586 13.0136 0.0524869C13.1092 0.0157772 13.2113 -0.0012177 13.3136 0.00249933H17.2036C17.3061 -0.00600264 17.4092 0.00724216 17.5062 0.0413785C17.6032 0.0755149 17.692 0.129777 17.7665 0.200588C17.8411 0.271398 17.8999 0.357152 17.939 0.452265C17.9782 0.547378 17.9967 0.649698 17.9936 0.752495V4.75247C17.9977 4.93165 17.9358 5.10606 17.8196 5.24252C17.7034 5.37899 17.5411 5.46796 17.3636 5.49246C17.1838 5.52606 16.9979 5.48997 16.8438 5.39154C16.6896 5.2931 16.5787 5.1397 16.5336 4.96246C16.5185 4.86303 16.5185 4.76191 16.5336 4.66248V1.49248H16.5036Z" fill="white"/>
<path d="M1.50499 16.4913H4.68497C4.79005 16.4791 4.89653 16.4893 4.99741 16.5211C5.09828 16.553 5.19127 16.6059 5.27026 16.6762C5.34926 16.7466 5.41246 16.8329 5.45575 16.9294C5.49904 17.0259 5.52142 17.1305 5.52142 17.2363C5.52142 17.3421 5.49904 17.4467 5.45575 17.5432C5.41246 17.6397 5.34926 17.726 5.27026 17.7963C5.19127 17.8667 5.09828 17.9195 4.99741 17.9514C4.89653 17.9833 4.79005 17.9935 4.68497 17.9813H0.795005C0.688041 17.9906 0.580329 17.9763 0.479547 17.9392C0.378764 17.9022 0.287385 17.8434 0.21194 17.767C0.136494 17.6906 0.0788257 17.5985 0.0430562 17.4972C0.00728672 17.396 -0.00570387 17.2881 0.00500098 17.1813V13.3013C-0.00719389 13.1962 0.0029741 13.0897 0.034847 12.9889C0.0667199 12.888 0.119577 12.795 0.189937 12.716C0.260296 12.637 0.346584 12.5738 0.443109 12.5305C0.539634 12.4872 0.644205 12.4648 0.749992 12.4648C0.855779 12.4648 0.960381 12.4872 1.05691 12.5305C1.15343 12.5738 1.23969 12.637 1.31005 12.716C1.38041 12.795 1.43326 12.888 1.46514 12.9889C1.49701 13.0897 1.50718 13.1962 1.49498 13.3013V16.4913H1.50499Z" fill="white"/>
<path d="M16.505 16.491V13.3111C16.4928 13.206 16.5029 13.0995 16.5348 12.9986C16.5667 12.8978 16.6195 12.8048 16.6899 12.7258C16.7602 12.6468 16.8465 12.5836 16.9431 12.5403C17.0396 12.497 17.1442 12.4746 17.2499 12.4746C17.3557 12.4746 17.4603 12.497 17.5569 12.5403C17.6534 12.5836 17.7396 12.6468 17.81 12.7258C17.8804 12.8048 17.9332 12.8978 17.9651 12.9986C17.997 13.0995 18.0071 13.206 17.9949 13.3111V17.201C18.0041 17.3071 17.9899 17.4138 17.9535 17.5138C17.917 17.6138 17.8591 17.7046 17.7838 17.7799C17.7086 17.8552 17.6178 17.9131 17.5178 17.9496C17.4178 17.986 17.311 18.0002 17.205 17.991H13.315C13.2099 18.0032 13.1034 17.9931 13.0025 17.9612C12.9017 17.9293 12.8087 17.8765 12.7297 17.8061C12.6507 17.7357 12.5875 17.6494 12.5442 17.5529C12.5009 17.4564 12.4785 17.3518 12.4785 17.246C12.4785 17.1403 12.5009 17.0356 12.5442 16.9391C12.5875 16.8426 12.6507 16.7563 12.7297 16.686C12.8087 16.6156 12.9017 16.5628 13.0025 16.5309C13.1034 16.499 13.2099 16.4889 13.315 16.501H16.505V16.491Z" fill="white"/>
</svg>
