<svg width="17" height="17" viewBox="0 0 17 17" fill="none" xmlns="http://www.w3.org/2000/svg">
<path d="M11.3333 12.0413C11.3333 12.2292 11.4079 12.4094 11.5407 12.5422C11.6736 12.675 11.8537 12.7497 12.0416 12.7497C12.2294 12.7497 12.4096 12.675 12.5425 12.5422C12.6753 12.4094 12.7499 12.2292 12.7499 12.0413C12.7499 11.8535 12.6753 11.6733 12.5425 11.5405C12.4096 11.4076 12.2294 11.333 12.0416 11.333C11.8537 11.333 11.6736 11.4076 11.5407 11.5405C11.4079 11.6733 11.3333 11.8535 11.3333 12.0413Z" stroke="#00601D" stroke-width="2" stroke-linecap="round" stroke-linejoin="round"/>
<path d="M4.25 4.95833C4.25 5.14619 4.32463 5.32636 4.45747 5.4592C4.5903 5.59204 4.77047 5.66667 4.95833 5.66667C5.14619 5.66667 5.32636 5.59204 5.4592 5.4592C5.59204 5.32636 5.66667 5.14619 5.66667 4.95833C5.66667 4.77047 5.59204 4.5903 5.4592 4.45747C5.32636 4.32463 5.14619 4.25 4.95833 4.25C4.77047 4.25 4.5903 4.32463 4.45747 4.45747C4.32463 4.5903 4.25 4.77047 4.25 4.95833Z" stroke="#00601D" stroke-width="2" stroke-linecap="round" stroke-linejoin="round"/>
<path d="M4.25 12.75L12.75 4.25" stroke="#00601D" stroke-width="2" stroke-linecap="round" stroke-linejoin="round"/>
</svg>
