<svg width="18" height="26" viewBox="0 0 18 26" fill="none" xmlns="http://www.w3.org/2000/svg">
<path d="M8.74685 0.900024C7.85491 0.900024 6.9995 1.25435 6.36881 1.88504C5.73811 2.51574 5.38379 3.37114 5.38379 4.26308V13.2312C5.38379 14.1232 5.73811 14.9786 6.36881 15.6093C6.9995 16.24 7.85491 16.5943 8.74685 16.5943C9.63879 16.5943 10.4942 16.24 11.1249 15.6093C11.7556 14.9786 12.1099 14.1232 12.1099 13.2312V4.26308C12.1099 3.37114 11.7556 2.51574 11.1249 1.88504C10.4942 1.25435 9.63879 0.900024 8.74685 0.900024Z" stroke="black" stroke-width="1.8" stroke-linecap="round" stroke-linejoin="round"/>
<path d="M16.5947 10.9892V13.2312C16.5947 15.3124 15.7679 17.3084 14.2963 18.78C12.8247 20.2516 10.8287 21.0784 8.74753 21.0784C6.66634 21.0784 4.67039 20.2516 3.19876 18.78C1.72714 17.3084 0.900391 15.3124 0.900391 13.2312V10.9892" stroke="black" stroke-width="1.8" stroke-linecap="round" stroke-linejoin="round"/>
<path d="M8.3623 20.9954V25.057" stroke="black" stroke-width="1.8" stroke-linecap="round" stroke-linejoin="round"/>
</svg>
