<svg width="18" height="18" viewBox="0 0 18 18" fill="none" xmlns="http://www.w3.org/2000/svg">
<g clip-path="url(#clip0_459_1530)">
<path d="M6.75 9C6.75 9.41422 6.41421 9.75 6 9.75C5.58579 9.75 5.25 9.41422 5.25 9C5.25 8.58577 5.58579 8.25 6 8.25C6.41421 8.25 6.75 8.58577 6.75 9Z" fill="black"/>
<path d="M9.75 9C9.75 9.41422 9.41422 9.75 9 9.75C8.58577 9.75 8.25 9.41422 8.25 9C8.25 8.58577 8.58577 8.25 9 8.25C9.41422 8.25 9.75 8.58577 9.75 9Z" fill="black"/>
<path d="M12 9.75C12.4142 9.75 12.75 9.41422 12.75 9C12.75 8.58577 12.4142 8.25 12 8.25C11.5858 8.25 11.25 8.58577 11.25 9C11.25 9.41422 11.5858 9.75 12 9.75Z" fill="black"/>
<path fill-rule="evenodd" clip-rule="evenodd" d="M9 0.9375C4.5472 0.9375 0.9375 4.5472 0.9375 9C0.9375 13.4528 4.5472 17.0625 9 17.0625C13.4528 17.0625 17.0625 13.4528 17.0625 9C17.0625 4.5472 13.4528 0.9375 9 0.9375ZM2.0625 9C2.0625 5.16853 5.16853 2.0625 9 2.0625C12.8315 2.0625 15.9375 5.16853 15.9375 9C15.9375 12.8315 12.8315 15.9375 9 15.9375C5.16853 15.9375 2.0625 12.8315 2.0625 9Z" fill="black"/>
</g>
<defs>
<clipPath id="clip0_459_1530">
<rect width="18" height="18" fill="white"/>
</clipPath>
</defs>
</svg>
