<svg width="26" height="19" viewBox="0 0 26 19" fill="none" xmlns="http://www.w3.org/2000/svg">
<path d="M17.97 10.0343C17.97 8.92753 17.305 8.23244 16.3851 8.23244C15.4605 8.23244 14.8746 8.93544 14.8746 10.1942V10.9114C14.8746 12.1781 15.4668 12.8874 16.4136 12.8874C17.3446 12.8874 17.9716 12.1908 17.9716 10.9874L17.97 10.0343ZM9.39946 10.4095L8.23729 6.56836H8.15338L6.99121 10.4095H9.39946Z" fill="white"/>
<path d="M3.16667 0C2.32681 0 1.52136 0.33363 0.927495 0.927495C0.33363 1.52136 0 2.32681 0 3.16667L0 15.8333C0 16.6732 0.33363 17.4786 0.927495 18.0725C1.52136 18.6664 2.32681 19 3.16667 19H22.1667C23.0065 19 23.812 18.6664 24.4058 18.0725C24.9997 17.4786 25.3333 16.6732 25.3333 15.8333V3.16667C25.3333 2.32681 24.9997 1.52136 24.4058 0.927495C23.812 0.33363 23.0065 0 22.1667 0H3.16667ZM12.9976 10.0067C12.9976 7.98 14.0964 6.77033 15.7732 6.77033C16.8102 6.77033 17.6035 7.23583 17.8885 7.98792H17.9724V4.25125H19.8091V14.25H18.0072V13.0673H17.917C17.6874 13.8178 16.8245 14.3403 15.7526 14.3403C14.0822 14.3403 12.9976 13.1306 12.9976 11.1055V10.0067ZM6.60092 11.8085L5.85833 14.25H3.95833L7.14558 4.75158H9.34167L12.5162 14.25H10.5197L9.7755 11.8085H6.60092Z" fill="white"/>
</svg>
