<svg width="30" height="30" viewBox="0 0 30 30" fill="none" xmlns="http://www.w3.org/2000/svg">
<path d="M23.2566 19.5858V17.1376C23.2566 13.6753 23.2566 11.9442 22.181 10.8686C21.1054 9.79297 19.3742 9.79297 15.912 9.79297H13.4638C10.0015 9.79297 8.27033 9.79297 7.19474 10.8686C6.11914 11.9442 6.11914 13.6753 6.11914 17.1376V19.5858C6.11914 23.0481 6.11914 24.7792 7.19474 25.8548C8.27033 26.9304 10.0015 26.9304 13.4638 26.9304H15.912C19.3742 26.9304 21.1054 26.9304 22.181 25.8548C23.2566 24.7792 23.2566 23.0481 23.2566 19.5858Z" fill="white" stroke="white" stroke-width="1.5" stroke-linejoin="round"/>
<path d="M23.2578 22.0341C24.9889 22.0341 25.8545 22.0341 26.3924 21.4963C26.9301 20.9585 26.9301 20.0929 26.9301 18.3618C26.9301 16.6306 26.9301 15.7651 26.3924 15.2272C25.8545 14.6895 24.9889 14.6895 23.2578 14.6895" stroke="white" stroke-width="1.5" stroke-linejoin="round"/>
<path d="M6.11958 22.0338C4.38844 22.0338 3.52286 22.0338 2.98506 21.4961C2.44727 20.9582 2.44727 20.0927 2.44727 18.3615C2.44727 16.6304 2.44727 15.7648 2.98506 15.227C3.52286 14.6892 4.38844 14.6892 6.11958 14.6892" stroke="white" stroke-width="1.5" stroke-linejoin="round"/>
<path d="M16.5258 4.2844C16.5258 5.29849 15.7037 6.12056 14.6897 6.12056C13.6756 6.12056 12.8535 5.29849 12.8535 4.2844C12.8535 3.27031 13.6756 2.44824 14.6897 2.44824C15.7037 2.44824 16.5258 3.27031 16.5258 4.2844Z" stroke="white" stroke-width="1.5"/>
<path d="M14.6895 6.12061V9.79292" stroke="white" stroke-width="1.5" stroke-linecap="round" stroke-linejoin="round"/>
<path d="M11.0176 15.9136V17.1377" stroke="black" stroke-width="1.5" stroke-linecap="round" stroke-linejoin="round"/>
<path d="M18.3613 15.9136V17.1377" stroke="black" stroke-width="1.5" stroke-linecap="round" stroke-linejoin="round"/>
<path d="M12.2422 21.4219C12.2422 21.4219 13.0583 22.0339 14.6904 22.0339C16.3225 22.0339 17.1386 21.4219 17.1386 21.4219" stroke="black" stroke-width="1.5" stroke-linecap="round"/>
</svg>
