<svg width="18" height="18" viewBox="0 0 18 18" fill="none" xmlns="http://www.w3.org/2000/svg">
<path d="M9 1.6875C7.55373 1.6875 6.13993 2.11637 4.9374 2.91988C3.73486 3.72339 2.7976 4.86544 2.24413 6.20163C1.69067 7.53781 1.54586 9.00811 1.82801 10.4266C2.11017 11.8451 2.80661 13.148 3.82928 14.1707C4.85196 15.1934 6.15492 15.8898 7.57341 16.172C8.99189 16.4541 10.4622 16.3093 11.7984 15.7559C13.1346 15.2024 14.2766 14.2651 15.0801 13.0626C15.8836 11.8601 16.3125 10.4463 16.3125 9C16.3105 7.06123 15.5394 5.20246 14.1685 3.83154C12.7975 2.46063 10.9388 1.68955 9 1.6875ZM9 15.1875C7.77623 15.1875 6.57994 14.8246 5.56241 14.1447C4.54488 13.4648 3.75182 12.4985 3.2835 11.3679C2.81518 10.2372 2.69265 8.99314 2.93139 7.79288C3.17014 6.59262 3.75944 5.49011 4.62478 4.62478C5.49012 3.75944 6.59262 3.17014 7.79288 2.93139C8.99314 2.69264 10.2372 2.81518 11.3679 3.2835C12.4985 3.75181 13.4648 4.54488 14.1447 5.56241C14.8246 6.57994 15.1875 7.77623 15.1875 9C15.1856 10.6405 14.5331 12.2132 13.3732 13.3732C12.2132 14.5331 10.6405 15.1856 9 15.1875ZM7.875 5.625C7.875 5.4025 7.94098 5.18499 8.0646 4.99998C8.18822 4.81498 8.36392 4.67078 8.56948 4.58564C8.77505 4.50049 9.00125 4.47821 9.21948 4.52162C9.43771 4.56502 9.63816 4.67217 9.7955 4.8295C9.95283 4.98684 10.06 5.18729 10.1034 5.40552C10.1468 5.62375 10.1245 5.84995 10.0394 6.05552C9.95422 6.26109 9.81003 6.43679 9.62502 6.5604C9.44001 6.68402 9.22251 6.75 9 6.75C8.70163 6.75 8.41549 6.63147 8.20451 6.4205C7.99353 6.20952 7.875 5.92337 7.875 5.625ZM12.9375 7.875C12.9375 8.02418 12.8782 8.16726 12.7728 8.27275C12.6673 8.37824 12.5242 8.4375 12.375 8.4375H9.5625V9.39234L11.7183 12.6267C11.8011 12.7509 11.8312 12.9029 11.8019 13.0493C11.7726 13.1956 11.6864 13.3244 11.5622 13.4072C11.438 13.49 11.286 13.5201 11.1396 13.4908C10.9933 13.4615 10.8645 13.3753 10.7817 13.2511L9 10.5792L7.21828 13.2511C7.17729 13.3126 7.12458 13.3654 7.06317 13.4065C7.00176 13.4477 6.93285 13.4763 6.86038 13.4908C6.71401 13.5201 6.56201 13.49 6.43782 13.4072C6.31362 13.3244 6.2274 13.1956 6.19813 13.0493C6.16886 12.9029 6.19892 12.7509 6.28172 12.6267L8.4375 9.39234V8.4375H5.625C5.47582 8.4375 5.33275 8.37824 5.22726 8.27275C5.12177 8.16726 5.0625 8.02418 5.0625 7.875C5.0625 7.72582 5.12177 7.58274 5.22726 7.47725C5.33275 7.37176 5.47582 7.3125 5.625 7.3125H12.375C12.5242 7.3125 12.6673 7.37176 12.7728 7.47725C12.8782 7.58274 12.9375 7.72582 12.9375 7.875Z" fill="black"/>
</svg>
