<svg width="17" height="17" viewBox="0 0 17 17" fill="none" xmlns="http://www.w3.org/2000/svg">
<path d="M8.25 15.75C12.3921 15.75 15.75 12.3921 15.75 8.25C15.75 4.10786 12.3921 0.75 8.25 0.75C4.10786 0.75 0.75 4.10786 0.75 8.25C0.75 12.3921 4.10786 15.75 8.25 15.75Z" stroke="#B47035" stroke-width="1.5"/>
<path d="M8.25586 7.13091C7.63456 7.13091 7.13086 7.63461 7.13086 8.25591C7.13086 8.87721 7.63456 9.38091 8.25586 9.38091C8.87716 9.38091 9.38086 8.87721 9.38086 8.25591C9.38086 7.63461 8.87716 7.13091 8.25586 7.13091ZM8.25586 7.13091V4.49902M10.511 10.5146L9.04958 9.05316" stroke="#B47035" stroke-width="1.5" stroke-linecap="round" stroke-linejoin="round"/>
</svg>
