<svg width="23" height="23" viewBox="0 0 23 23" fill="none" xmlns="http://www.w3.org/2000/svg">
<path d="M8.87299 11.103H22.2051" stroke="white" stroke-width="1.5" stroke-linecap="round" stroke-linejoin="round"/>
<path d="M22.205 11.1025L7.35793 18.0715C7.27333 18.103 7.18147 18.1095 7.09329 18.0902C7.00511 18.071 6.92431 18.0268 6.86048 17.963C6.79666 17.8992 6.75251 17.8184 6.73326 17.7302C6.71402 17.642 6.7205 17.5501 6.75193 17.4655L8.87294 11.1025L6.75193 4.73947C6.7205 4.65487 6.71402 4.56301 6.73326 4.47483C6.75251 4.38665 6.79666 4.30584 6.86048 4.24202C6.92431 4.1782 7.00511 4.13404 7.09329 4.1148C7.18147 4.09556 7.27333 4.10204 7.35793 4.13347L22.205 11.1025Z" stroke="white" stroke-width="1.5" stroke-linecap="round" stroke-linejoin="round"/>
</svg>
