<svg width="44" height="44" viewBox="0 0 44 44" fill="none" xmlns="http://www.w3.org/2000/svg">
<path d="M24.8342 23.4592L17.9592 30.3342C17.5718 30.7217 17.0462 30.9394 16.4983 30.9394C15.9503 30.9394 15.4248 30.7217 15.0373 30.3342C14.6499 29.9468 14.4322 29.4212 14.4322 28.8733C14.4322 28.3253 14.6499 27.7998 15.0373 27.4123L18.3906 24.0625H4.125C3.57799 24.0625 3.05339 23.8452 2.66659 23.4584C2.2798 23.0716 2.0625 22.547 2.0625 22C2.0625 21.453 2.2798 20.9284 2.66659 20.5416C3.05339 20.1548 3.57799 19.9375 4.125 19.9375H18.3906L15.0408 16.5842C14.8489 16.3924 14.6967 16.1646 14.5929 15.9139C14.4891 15.6633 14.4356 15.3946 14.4356 15.1233C14.4356 14.5753 14.6533 14.0498 15.0408 13.6623C15.4282 13.2749 15.9538 13.0572 16.5017 13.0572C17.0497 13.0572 17.5752 13.2749 17.9627 13.6623L24.8377 20.5373C25.0297 20.7292 25.182 20.957 25.2858 21.2079C25.3896 21.4587 25.4429 21.7275 25.4426 21.999C25.4422 22.2704 25.3883 22.5392 25.2839 22.7897C25.1796 23.0403 25.0267 23.2678 24.8342 23.4592ZM34.375 4.8125H23.375C22.828 4.8125 22.3034 5.0298 21.9166 5.41659C21.5298 5.80339 21.3125 6.32799 21.3125 6.875C21.3125 7.42201 21.5298 7.94661 21.9166 8.33341C22.3034 8.7202 22.828 8.9375 23.375 8.9375H32.3125V35.0625H23.375C22.828 35.0625 22.3034 35.2798 21.9166 35.6666C21.5298 36.0534 21.3125 36.578 21.3125 37.125C21.3125 37.672 21.5298 38.1966 21.9166 38.5834C22.3034 38.9702 22.828 39.1875 23.375 39.1875H34.375C34.922 39.1875 35.4466 38.9702 35.8334 38.5834C36.2202 38.1966 36.4375 37.672 36.4375 37.125V6.875C36.4375 6.32799 36.2202 5.80339 35.8334 5.41659C35.4466 5.0298 34.922 4.8125 34.375 4.8125Z" fill="black"/>
</svg>
