<svg width="17" height="19" viewBox="0 0 17 19" fill="none" xmlns="http://www.w3.org/2000/svg">
<path d="M11.8039 0.75V4.15097M5.00195 0.75V4.15097" stroke="#B47035" stroke-width="1.5" stroke-linecap="round" stroke-linejoin="round"/>
<path d="M16.0543 9.25213C16.0543 6.04566 16.0543 4.44244 15.0582 3.44631C14.0621 2.4502 12.4588 2.4502 9.25242 2.4502H7.55193C4.34547 2.4502 2.74224 2.4502 1.74612 3.44631C0.75 4.44244 0.75 6.04566 0.75 9.25213V10.9526C0.75 14.159 0.75 15.7623 1.74612 16.7584C2.74224 17.7545 4.34547 17.7545 7.55193 17.7545" stroke="#B47035" stroke-width="1.5" stroke-linecap="round" stroke-linejoin="round"/>
<path d="M0.75 7.55176H16.0543" stroke="#B47035" stroke-width="1.5" stroke-linecap="round" stroke-linejoin="round"/>
<path d="M13.7303 14.9502L12.6529 14.3541V12.8805M16.0539 14.3541C16.0539 16.2324 14.5312 17.7551 12.6529 17.7551C10.7747 17.7551 9.25195 16.2324 9.25195 14.3541C9.25195 12.4758 10.7747 10.9531 12.6529 10.9531C14.5312 10.9531 16.0539 12.4758 16.0539 14.3541Z" stroke="#B47035" stroke-width="1.5" stroke-linecap="round" stroke-linejoin="round"/>
</svg>
