<svg width="17" height="48" viewBox="0 0 17 48" fill="none" xmlns="http://www.w3.org/2000/svg">
<path d="M16.6796 20.0977C16.7123 21.4366 16.6368 22.7215 16.1397 23.9388C15.6889 25.0433 14.8774 25.608 13.8653 25.5809C13.5982 23.4485 15.0837 20.4888 16.6796 20.0977Z" fill="url(#paint0_linear_920_1833)"/>
<path d="M12.5922 25.3332C11.0357 24.9827 10.1036 23.3913 9.91992 21.0041C11.8371 20.7178 12.8368 22.8762 12.5922 25.3332Z" fill="url(#paint1_linear_920_1833)"/>
<path d="M13.2902 16.8266C13.022 14.5927 12.4686 12.4005 14.1919 10.4766C15.3618 12.9201 15.346 16.0286 13.2902 16.8266Z" fill="url(#paint2_linear_920_1833)"/>
<path d="M12.177 17.1015C10.4931 17.3077 9.0775 16.1536 8.28516 13.9986C9.17217 13.5117 10.173 13.6684 10.8775 14.4393C11.5537 15.1854 11.9155 16.0961 12.177 17.1015Z" fill="url(#paint3_linear_920_1833)"/>
<path d="M11.5312 33.9692C12.0948 32.7565 12.7045 31.6418 13.6321 30.7333C14.2768 30.101 15.0478 29.8576 15.9066 30.0154C15.4456 31.4648 14.988 32.9007 13.7043 33.8554C13.0449 34.3457 12.3089 34.3783 11.5312 33.9692Z" fill="url(#paint4_linear_920_1833)"/>
<path d="M9.29163 28.1172C11.1479 28.7495 11.5312 30.9935 10.492 33.2714C8.83065 31.8546 9.00422 30.0242 9.29163 28.1172Z" fill="url(#paint5_linear_920_1833)"/>
<path d="M9.04492 2.46094C11.1221 4.85487 11.5583 7.37616 10.1641 8.72078C8.68763 6.30543 8.16354 4.02195 9.04492 2.46094Z" fill="url(#paint6_linear_920_1833)"/>
<path d="M4.63672 8.03556C5.58798 7.07979 6.64181 6.96032 7.64491 7.76731C8.23213 8.23956 8.7179 8.83692 9.26341 9.39257C7.87146 10.3878 6.23042 9.86933 4.63672 8.03556Z" fill="url(#paint7_linear_920_1833)"/>
<path d="M12.0945 39.0104C11.3945 39.9865 10.6541 40.8566 9.64418 41.4472C8.61741 42.0468 7.70897 41.8766 6.85352 40.9242C7.81267 39.9887 8.75942 39.0363 10.0871 38.6249C10.7724 38.413 11.4295 38.5686 12.0945 39.0104Z" fill="url(#paint8_linear_920_1833)"/>
<path d="M6.15898 39.9172C5.27534 38.523 5.35424 36.6486 6.61545 34.6875C8.01416 35.8946 7.83157 38.0812 6.15898 39.9172Z" fill="url(#paint9_linear_920_1833)"/>
<path d="M5.73744 45.9784C4.87183 46.596 3.99609 47.0773 2.99749 47.2802C1.79488 47.5247 0.841368 46.9342 0.457031 45.7225C1.49733 45.1894 2.58497 44.7769 3.76954 44.76C4.62275 44.7476 5.25053 45.2142 5.73744 45.9784Z" fill="url(#paint10_linear_920_1833)"/>
<path d="M2.07579 39.8184C3 41.42 2.25612 43.3597 0.159742 44.4856C-0.36548 43.0204 0.438133 41.0559 2.07579 39.8184Z" fill="url(#paint11_linear_920_1833)"/>
<path d="M4.99272 3.46374C2.77462 3.15041 1.32293 1.85088 0.169922 0.106145C1.79744 -0.388646 4.13614 0.865801 4.99272 3.46374Z" fill="url(#paint12_linear_920_1833)"/>
<defs>
<linearGradient id="paint0_linear_920_1833" x1="13.834" y1="22.8398" x2="16.6862" y2="22.8398" gradientUnits="userSpaceOnUse">
<stop stop-color="#BD8436"/>
<stop offset="1" stop-color="#F1C771"/>
</linearGradient>
<linearGradient id="paint1_linear_920_1833" x1="9.91992" y1="23.1559" x2="12.6286" y2="23.1559" gradientUnits="userSpaceOnUse">
<stop stop-color="#BD8436"/>
<stop offset="1" stop-color="#F1C771"/>
</linearGradient>
<linearGradient id="paint2_linear_920_1833" x1="12.9883" y1="13.6516" x2="14.9755" y2="13.6516" gradientUnits="userSpaceOnUse">
<stop stop-color="#BD8436"/>
<stop offset="1" stop-color="#F1C771"/>
</linearGradient>
<linearGradient id="paint3_linear_920_1833" x1="8.28516" y1="15.4229" x2="12.177" y2="15.4229" gradientUnits="userSpaceOnUse">
<stop stop-color="#BD8436"/>
<stop offset="1" stop-color="#F1C771"/>
</linearGradient>
<linearGradient id="paint4_linear_920_1833" x1="11.5312" y1="32.1103" x2="15.9066" y2="32.1103" gradientUnits="userSpaceOnUse">
<stop stop-color="#BD8436"/>
<stop offset="1" stop-color="#F1C771"/>
</linearGradient>
<linearGradient id="paint5_linear_920_1833" x1="9.10547" y1="30.6943" x2="11.0589" y2="30.6943" gradientUnits="userSpaceOnUse">
<stop stop-color="#BD8436"/>
<stop offset="1" stop-color="#F1C771"/>
</linearGradient>
<linearGradient id="paint6_linear_920_1833" x1="8.61523" y1="5.59086" x2="10.9714" y2="5.59086" gradientUnits="userSpaceOnUse">
<stop stop-color="#BD8436"/>
<stop offset="1" stop-color="#F1C771"/>
</linearGradient>
<linearGradient id="paint7_linear_920_1833" x1="4.63672" y1="8.56152" x2="9.26341" y2="8.56152" gradientUnits="userSpaceOnUse">
<stop stop-color="#BD8436"/>
<stop offset="1" stop-color="#F1C771"/>
</linearGradient>
<linearGradient id="paint8_linear_920_1833" x1="6.85352" y1="40.164" x2="12.0945" y2="40.164" gradientUnits="userSpaceOnUse">
<stop stop-color="#BD8436"/>
<stop offset="1" stop-color="#F1C771"/>
</linearGradient>
<linearGradient id="paint9_linear_920_1833" x1="5.57031" y1="37.3023" x2="7.55141" y2="37.3023" gradientUnits="userSpaceOnUse">
<stop stop-color="#BD8436"/>
<stop offset="1" stop-color="#F1C771"/>
</linearGradient>
<linearGradient id="paint10_linear_920_1833" x1="0.457031" y1="46.0472" x2="5.73743" y2="46.0472" gradientUnits="userSpaceOnUse">
<stop stop-color="#BD8436"/>
<stop offset="1" stop-color="#F1C771"/>
</linearGradient>
<linearGradient id="paint11_linear_920_1833" x1="0" y1="42.152" x2="2.46683" y2="42.152" gradientUnits="userSpaceOnUse">
<stop stop-color="#BD8436"/>
<stop offset="1" stop-color="#F1C771"/>
</linearGradient>
<linearGradient id="paint12_linear_920_1833" x1="0.169922" y1="1.73187" x2="4.99272" y2="1.73187" gradientUnits="userSpaceOnUse">
<stop stop-color="#BD8436"/>
<stop offset="1" stop-color="#F1C771"/>
</linearGradient>
</defs>
</svg>
