<svg width="21" height="22" viewBox="0 0 21 22" fill="none" xmlns="http://www.w3.org/2000/svg">
<path d="M14.0834 6.30556C14.0834 3.23731 11.596 0.75 8.52777 0.75C5.4595 0.75 2.97217 3.23731 2.97217 6.30556C2.97217 9.37378 5.4595 11.8611 8.52777 11.8611C11.596 11.8611 14.0834 9.37378 14.0834 6.30556Z" stroke="white" stroke-width="1.5" stroke-linecap="round" stroke-linejoin="round"/>
<path d="M0.75 19.6391C0.75 15.3436 4.23226 11.8613 8.52784 11.8613C9.94452 11.8613 11.2728 12.2401 12.4168 12.9019" stroke="white" stroke-width="1.5" stroke-linecap="round" stroke-linejoin="round"/>
<path d="M15.1943 13.9127C15.1943 12.7798 16.1892 11.8613 17.4166 11.8613C18.6439 11.8613 19.6388 12.7798 19.6388 13.9127C19.6388 14.321 19.5096 14.7014 19.2867 15.0211C18.6226 15.9738 17.4166 16.3268 17.4166 17.4597V17.9724M17.4057 20.7502H17.4157" stroke="white" stroke-width="1.5" stroke-linecap="round" stroke-linejoin="round"/>
</svg>
