<svg width="22" height="26" viewBox="0 0 22 26" fill="none" xmlns="http://www.w3.org/2000/svg">
<path d="M6.20455 7.21154V5.49858C6.20455 4.10168 7.22878 2.91634 8.59982 2.80079C9.0523 2.76266 9.50624 2.72979 9.96152 2.70223M9.96152 2.70223C10.3049 1.57162 11.342 0.75 12.5682 0.75H14.3864C15.6125 0.75 16.6496 1.57162 16.993 2.70223M9.96152 2.70223C9.88309 2.96049 9.84091 3.23485 9.84091 3.51923V4.44231H17.1136V3.51923C17.1136 3.23485 17.0715 2.96049 16.993 2.70223M15.2955 20.1346H18.0227C19.5289 20.1346 20.75 18.8947 20.75 17.3654V5.49858C20.75 4.10168 19.7258 2.91634 18.3547 2.80079C17.9022 2.76266 17.4483 2.72979 16.993 2.70223M15.2955 21.0577V18.75C15.2955 16.4558 13.4639 14.5962 11.2045 14.5962H9.38636C8.63327 14.5962 8.02273 13.9762 8.02273 13.2115V11.3654C8.02273 9.07128 6.19116 7.21154 3.93182 7.21154H2.56818M4.38636 7.21154H2.11364C1.36052 7.21154 0.75 7.83145 0.75 8.59615V23.3654C0.75 24.1301 1.36052 24.75 2.11364 24.75H13.9318C14.6849 24.75 15.2955 24.1301 15.2955 23.3654V18.2885C15.2955 12.1708 10.4113 7.21154 4.38636 7.21154Z" stroke="black" stroke-width="1.5" stroke-linecap="round" stroke-linejoin="round"/>
</svg>
