<svg width="20" height="22" viewBox="0 0 20 22" fill="none" xmlns="http://www.w3.org/2000/svg">
<path d="M17.4019 4.40039L16.7822 14.4252C16.6238 16.9864 16.5447 18.2671 15.9027 19.1879C15.5852 19.6431 15.1766 20.0273 14.7026 20.3159C13.744 20.8999 12.4609 20.8999 9.89455 20.8999C7.32497 20.8999 6.04015 20.8999 5.08091 20.3148C4.60666 20.0257 4.19786 19.6408 3.88054 19.1848C3.23874 18.2626 3.16131 16.9801 3.00647 14.4153L2.40186 4.40039" stroke="black" stroke-width="1.8" stroke-linecap="round"/>
<path d="M0.899902 4.40029H18.8999M13.9556 4.40029L13.273 2.99206C12.8195 2.05662 12.5927 1.58889 12.2016 1.29719C12.1149 1.23248 12.023 1.17492 11.9269 1.12508C11.4938 0.900391 10.974 0.900391 9.9344 0.900391C8.8687 0.900391 8.3359 0.900391 7.89558 1.1345C7.798 1.18639 7.70488 1.24628 7.61719 1.31355C7.22154 1.61707 7.00053 2.10191 6.55851 3.07159L5.95282 4.40029" stroke="black" stroke-width="1.8" stroke-linecap="round"/>
<path d="M7.40186 15.4002V9.40039" stroke="black" stroke-width="1.8" stroke-linecap="round"/>
<path d="M12.4019 15.4002V9.40039" stroke="black" stroke-width="1.8" stroke-linecap="round"/>
</svg>
