<svg width="24" height="19" viewBox="0 0 24 19" fill="none" xmlns="http://www.w3.org/2000/svg">
<path d="M0.191431 8.6288L8.919 0.185203C9.01054 0.0967504 9.12712 0.0365268 9.25402 0.012138C9.38091 -0.0122509 9.51244 0.000289051 9.63197 0.0481739C9.75151 0.0960587 9.85369 0.17714 9.92563 0.281179C9.99756 0.385217 10.036 0.507545 10.0361 0.632713V5.08671C15.9796 5.46562 23.17 10.8917 23.9926 17.8218C24.0193 18.0424 23.9734 18.2656 23.8613 18.4596C23.7492 18.6535 23.5768 18.8083 23.3685 18.9018C23.1602 18.9954 22.9267 19.023 22.7012 18.9807C22.4758 18.9383 22.2699 18.8283 22.1129 18.6661C20.8845 17.3985 16.4727 13.3614 10.0361 13.1007V17.5199C10.036 17.6451 9.99756 17.7674 9.92563 17.8714C9.85369 17.9755 9.75151 18.0566 9.63197 18.1045C9.51244 18.1523 9.38091 18.1649 9.25402 18.1405C9.12712 18.1161 9.01054 18.0559 8.919 17.9674L0.191431 9.52382C0.0688516 9.40509 7.94183e-07 9.24413 7.94183e-07 9.07631C7.94183e-07 8.9085 0.0688516 8.74754 0.191431 8.6288ZM8.72699 15.9916V12.4538C8.72699 12.2858 8.79595 12.1247 8.91871 12.006C9.04146 11.8872 9.20795 11.8205 9.38156 11.8205C12.4067 11.8205 15.3556 12.5857 18.144 14.095C19.7693 14.9783 21.2664 16.066 22.5962 17.3299C22.0834 14.5267 20.3968 11.8416 17.796 9.7022C15.2214 7.59235 12.0773 6.33214 9.38156 6.33214C9.20795 6.33214 9.04146 6.26542 8.91871 6.14666C8.79595 6.0279 8.72699 5.86683 8.72699 5.69887V2.16206L1.58021 9.07631L8.72699 15.9916Z" fill="#EF0000"/>
</svg>
