<svg width="18" height="19" viewBox="0 0 18 19" fill="none" xmlns="http://www.w3.org/2000/svg">
<path fill-rule="evenodd" clip-rule="evenodd" d="M1.93816 7.00024C1.93813 6.03191 2.139 5.07411 2.52808 4.18739C2.91715 3.30067 3.48597 2.50431 4.19856 1.84867C4.91116 1.19303 5.75203 0.69237 6.66802 0.378336C7.58401 0.0643018 8.55519 -0.0562722 9.52016 0.0242371C9.65256 0.03297 9.7819 0.0679651 9.90064 0.127183C10.0194 0.186402 10.1252 0.268659 10.2118 0.369162C10.2984 0.469666 10.3642 0.586406 10.4053 0.712579C10.4463 0.838753 10.4619 0.971838 10.451 1.10408C10.4401 1.23632 10.403 1.36508 10.3419 1.48284C10.2807 1.6006 10.1968 1.70502 10.0949 1.79001C9.99297 1.875 9.87518 1.93886 9.74835 1.97787C9.62153 2.01688 9.48821 2.03027 9.35616 2.01724C8.6667 1.9594 7.97274 2.04528 7.31818 2.26944C6.66362 2.49361 6.06271 2.85119 5.55345 3.31955C5.0442 3.78792 4.6377 4.35687 4.35966 4.99043C4.08162 5.62399 3.93809 6.30835 3.93816 7.00024V10.5282C3.93813 10.9941 3.8296 11.4536 3.62116 11.8702L2.55616 14.0002H15.3202L14.2552 11.8702C14.0468 11.4536 13.9382 10.9941 13.9382 10.5282V9.00024C13.9382 8.73502 14.0435 8.48067 14.2311 8.29313C14.4186 8.10559 14.6729 8.00024 14.9382 8.00024C15.2034 8.00024 15.4577 8.10559 15.6453 8.29313C15.8328 8.48067 15.9382 8.73502 15.9382 9.00024V10.5282C15.938 10.6834 15.974 10.8364 16.0432 10.9752L17.7602 14.4082C17.844 14.576 17.8836 14.7623 17.8752 14.9497C17.8668 15.137 17.8106 15.3191 17.712 15.4786C17.6134 15.6381 17.4757 15.7698 17.3119 15.8611C17.1481 15.9524 16.9637 16.0003 16.7762 16.0002H12.8122C12.5897 16.8585 12.0886 17.6186 11.3874 18.1612C10.6863 18.7038 9.82476 18.9982 8.93816 18.9982C8.05157 18.9982 7.19007 18.7038 6.4889 18.1612C5.78773 17.6186 5.2866 16.8585 5.06416 16.0002H1.10016C0.912641 16.0003 0.728224 15.9524 0.56443 15.8611C0.400635 15.7698 0.262901 15.6381 0.164308 15.4786C0.0657151 15.3191 0.00953771 15.137 0.00111129 14.9497C-0.00731514 14.7623 0.0322892 14.576 0.116163 14.4082L1.83216 10.9752C1.90171 10.8365 1.938 10.6834 1.93816 10.5282V7.00024ZM7.20616 16.0002C7.38171 16.3043 7.63418 16.5567 7.93821 16.7322C8.24223 16.9077 8.58711 17.0001 8.93816 17.0001C9.28922 17.0001 9.63409 16.9077 9.93812 16.7322C10.2421 16.5567 10.4946 16.3043 10.6702 16.0002H7.20616ZM14.4382 2.00024C14.2412 2.00024 14.0461 2.03904 13.8641 2.11442C13.6821 2.1898 13.5168 2.30029 13.3775 2.43958C13.2382 2.57886 13.1277 2.74422 13.0523 2.92621C12.977 3.1082 12.9382 3.30325 12.9382 3.50024C12.9382 3.69722 12.977 3.89227 13.0523 4.07426C13.1277 4.25625 13.2382 4.42161 13.3775 4.5609C13.5168 4.70019 13.6821 4.81067 13.8641 4.88606C14.0461 4.96144 14.2412 5.00024 14.4382 5.00024C14.836 5.00024 15.2175 4.8422 15.4988 4.5609C15.7801 4.27959 15.9382 3.89806 15.9382 3.50024C15.9382 3.10241 15.7801 2.72088 15.4988 2.43958C15.2175 2.15827 14.836 2.00024 14.4382 2.00024ZM10.9382 3.50024C10.9382 2.57198 11.3069 1.68174 11.9633 1.02536C12.6197 0.368986 13.5099 0.000237214 14.4382 0.000237214C15.3664 0.000237214 16.2567 0.368986 16.913 1.02536C17.5694 1.68174 17.9382 2.57198 17.9382 3.50024C17.9382 4.42849 17.5694 5.31873 16.913 5.97511C16.2567 6.63149 15.3664 7.00024 14.4382 7.00024C13.5099 7.00024 12.6197 6.63149 11.9633 5.97511C11.3069 5.31873 10.9382 4.42849 10.9382 3.50024Z" fill="black"/>
</svg>
