<svg width="22" height="22" viewBox="0 0 22 22" fill="none" xmlns="http://www.w3.org/2000/svg">
<path d="M7.42188 13.0798C7.42188 14.3698 8.41188 15.4098 9.6419 15.4098H12.1519C13.2219 15.4098 14.0919 14.4998 14.0919 13.3798C14.0919 12.1598 13.5619 11.7298 12.7719 11.4498L8.74187 10.0498C7.95187 9.7698 7.42188 9.3398 7.42188 8.11984C7.42188 6.99984 8.29187 6.08984 9.3619 6.08984H11.8719C13.1019 6.08984 14.0919 7.12984 14.0919 8.41984" stroke="black" stroke-width="1.5" stroke-linecap="round" stroke-linejoin="round"/>
<path d="M10.75 4.75V16.75" stroke="black" stroke-width="1.5" stroke-linecap="round" stroke-linejoin="round"/>
<path d="M10.75 20.75C16.2728 20.75 20.75 16.2728 20.75 10.75C20.75 5.22715 16.2728 0.75 10.75 0.75C5.22715 0.75 0.75 5.22715 0.75 10.75C0.75 16.2728 5.22715 20.75 10.75 20.75Z" stroke="black" stroke-width="1.5" stroke-linecap="round" stroke-linejoin="round"/>
</svg>
