<svg width="17" height="24" viewBox="0 0 17 24" fill="none" xmlns="http://www.w3.org/2000/svg">
<path d="M0.910714 0C0.407745 0 0 0.402948 0 0.9V14.7006C0 16.1918 1.22322 17.4006 2.73214 17.4006H5.46399V21C5.46399 22.6568 6.82307 24 8.49976 24C10.1763 24 11.5355 22.6568 11.5355 21V17.4006H14.2679C15.7767 17.4006 17 16.1918 17 14.7006V0.9C17 0.402948 16.5922 0 16.0893 0H0.910714ZM1.82143 10.8004V1.8H9.1069V3.90185C9.1069 4.39891 9.51454 4.80185 10.0176 4.80185C10.5206 4.80185 10.9283 4.39891 10.9283 3.90185V1.8H12.1426V5.10134C12.1426 5.59841 12.5502 6.00134 13.0533 6.00134C13.5563 6.00134 13.964 5.59841 13.964 5.10134V1.8H15.1786V10.8004H1.82143ZM1.82143 14.7006V12.6004H15.1786V14.7006C15.1786 15.1976 14.7708 15.6006 14.2679 15.6006H10.6248C10.1217 15.6006 9.71404 16.0036 9.71404 16.5006V21C9.71404 21.6628 9.17029 22.2 8.49976 22.2C7.82911 22.2 7.28547 21.6628 7.28547 21V16.5006C7.28547 16.0036 6.87771 15.6006 6.37476 15.6006H2.73214C2.22917 15.6006 1.82143 15.1976 1.82143 14.7006Z" fill="black"/>
</svg>
