<svg width="22" height="22" viewBox="0 0 22 22" fill="none" xmlns="http://www.w3.org/2000/svg">
<path d="M1 11C1 12.3132 1.25866 13.6136 1.7612 14.8268C2.26375 16.0401 3.00035 17.1425 3.92893 18.0711C4.85752 18.9997 5.95991 19.7363 7.17317 20.2388C8.38642 20.7413 9.68678 21 11 21C12.3132 21 13.6136 20.7413 14.8268 20.2388C16.0401 19.7363 17.1425 18.9997 18.0711 18.0711C18.9997 17.1425 19.7363 16.0401 20.2388 14.8268C20.7413 13.6136 21 12.3132 21 11C21 8.34784 19.9464 5.8043 18.0711 3.92893C16.1957 2.05357 13.6522 1 11 1C8.34784 1 5.8043 2.05357 3.92893 3.92893C2.05357 5.8043 1 8.34784 1 11Z" stroke="black" stroke-width="2" stroke-linecap="round" stroke-linejoin="round"/>
<path d="M11 15.4443V15.4554" stroke="black" stroke-width="2" stroke-linecap="round" stroke-linejoin="round"/>
<path d="M10.9997 12.1112C11.4994 12.1127 11.985 11.9457 12.3782 11.6372C12.7713 11.3287 13.049 10.8967 13.1664 10.411C13.2838 9.92524 13.234 9.41411 13.0252 8.96013C12.8163 8.50615 12.4605 8.13582 12.0152 7.90895C11.5732 7.68252 11.0676 7.61231 10.5806 7.70975C10.0936 7.80719 9.65388 8.06654 9.33301 8.44562" stroke="black" stroke-width="2" stroke-linecap="round" stroke-linejoin="round"/>
</svg>
