<svg width="22" height="22" viewBox="0 0 22 22" fill="none" xmlns="http://www.w3.org/2000/svg">
<path d="M1.06641 12.1091C1.33902 14.5461 2.49783 16.798 4.32245 18.4364C6.14706 20.0748 8.51021 20.9855 10.9624 20.9952C13.4147 21.0049 15.785 20.113 17.6225 18.4891C19.46 16.8652 20.6367 14.6226 20.9286 12.1877C21.2205 9.75292 20.6074 7.29573 19.2058 5.28349C17.8042 3.27124 15.7119 1.84431 13.3269 1.27407C10.9418 0.703835 8.43038 1.03006 6.27018 2.19072C4.10998 3.35137 2.4517 5.26549 1.61072 7.56904" stroke="black" stroke-width="2" stroke-linecap="round" stroke-linejoin="round"/>
<path d="M1 2.1123V7.66654H6.55423" stroke="black" stroke-width="2" stroke-linecap="round" stroke-linejoin="round"/>
<path d="M9.88672 10.9985C9.88672 11.2932 10.0038 11.5757 10.2121 11.784C10.4204 11.9924 10.703 12.1094 10.9976 12.1094C11.2922 12.1094 11.5747 11.9924 11.7831 11.784C11.9914 11.5757 12.1084 11.2932 12.1084 10.9985C12.1084 10.7039 11.9914 10.4214 11.7831 10.2131C11.5747 10.0047 11.2922 9.8877 10.9976 9.8877C10.703 9.8877 10.4204 10.0047 10.2121 10.2131C10.0038 10.4214 9.88672 10.7039 9.88672 10.9985Z" stroke="black" stroke-width="2" stroke-linecap="round" stroke-linejoin="round"/>
</svg>
