<svg width="20" height="20" viewBox="0 0 20 20" fill="none" xmlns="http://www.w3.org/2000/svg">
<path fill-rule="evenodd" clip-rule="evenodd" d="M10 1.39535C5.24779 1.39535 1.39535 5.24779 1.39535 10C1.39535 14.7522 5.24779 18.6047 10 18.6047C14.7522 18.6047 18.6047 14.7522 18.6047 10C18.6047 5.24779 14.7522 1.39535 10 1.39535ZM0 10C0 4.47715 4.47715 0 10 0C15.5229 0 20 4.47715 20 10C20 15.5229 15.5229 20 10 20C4.47715 20 0 15.5229 0 10ZM10 7.11673C9.8894 7.28092 9.75302 7.52295 9.55014 7.887L9.42819 8.10574C9.41907 8.12198 9.40977 8.13895 9.40009 8.15656C9.29907 8.34009 9.16186 8.5894 8.93535 8.7614C8.70456 8.93656 8.42623 8.99786 8.22735 9.04158C8.20847 9.04577 8.19023 9.04977 8.17293 9.05367L7.93611 9.10726C7.5034 9.20521 7.23372 9.26781 7.05252 9.33116C7.16456 9.49954 7.35263 9.72186 7.65771 10.0786L7.81914 10.2673C7.831 10.2813 7.84339 10.2956 7.85616 10.3104C7.9936 10.4695 8.17647 10.6811 8.26093 10.9529C8.34456 11.2219 8.31628 11.5001 8.29461 11.7127C8.29256 11.7327 8.2906 11.7519 8.28884 11.7706L8.26447 12.0224C8.22084 12.4723 8.19395 12.7633 8.1947 12.9692C8.37358 12.9059 8.61842 12.7946 8.99219 12.6225L9.21386 12.5205C9.23023 12.5129 9.24726 12.5049 9.26512 12.4967C9.44912 12.4105 9.71023 12.2883 10 12.2883C10.2898 12.2883 10.5509 12.4105 10.735 12.4967C10.7527 12.5049 10.7698 12.5129 10.7861 12.5205L11.0078 12.6225C11.3816 12.7946 11.6264 12.9059 11.8053 12.9692C11.806 12.7633 11.7792 12.4723 11.7355 12.0224L11.7112 11.7706C11.7094 11.7519 11.7074 11.7327 11.7054 11.7127C11.6837 11.5001 11.6554 11.2219 11.7391 10.9529C11.8235 10.6811 12.0064 10.4695 12.1438 10.3104C12.1567 10.2956 12.169 10.2813 12.1808 10.2673L12.3423 10.0786C12.6473 9.72186 12.8354 9.49954 12.9474 9.33116C12.7662 9.26781 12.4966 9.20521 12.0639 9.10726L11.8271 9.05367C11.8098 9.04977 11.7915 9.04577 11.7727 9.04158C11.5738 8.99786 11.2954 8.93656 11.0647 8.7614C10.8381 8.5894 10.7009 8.34009 10.5999 8.15656C10.5902 8.13895 10.5809 8.12198 10.5718 8.10574L10.4499 7.887C10.247 7.52295 10.1106 7.28092 10 7.11673ZM12.0027 13.0234L12.0044 13.0235L12.0027 13.0234ZM7.99566 13.0235L7.99727 13.0234L7.99566 13.0235ZM8.96102 6.17194C9.16167 5.90996 9.4893 5.5814 10 5.5814C10.5107 5.5814 10.8383 5.90996 11.039 6.17194C11.2321 6.42422 11.4299 6.77908 11.6449 7.16502C11.6528 7.17917 11.6607 7.19337 11.6687 7.2076L11.7906 7.42634C11.8248 7.48776 11.8513 7.53523 11.8749 7.57593C11.8906 7.60327 11.9031 7.62394 11.913 7.63987C11.9287 7.6442 11.9485 7.64932 11.9739 7.65551C12.0176 7.66615 12.0684 7.67768 12.1351 7.69275L12.3718 7.74633C12.388 7.74998 12.4041 7.75362 12.4201 7.75726C12.8358 7.85125 13.2239 7.93897 13.5169 8.05444C13.8343 8.17953 14.218 8.40502 14.3658 8.88037C14.5113 9.34809 14.3322 9.75181 14.1513 10.0392C13.9813 10.3091 13.719 10.6158 13.434 10.9489L13.2413 11.1742C13.196 11.2273 13.161 11.2682 13.1313 11.304C13.1071 11.3334 13.0902 11.3546 13.0781 11.3706C13.0797 11.4224 13.0864 11.4953 13.1 11.636L13.129 11.9352C13.1723 12.381 13.2117 12.7879 13.1975 13.1084C13.1826 13.4413 13.1041 13.887 12.7083 14.1874C12.3011 14.4965 11.8462 14.4362 11.5235 14.3437C11.2216 14.2572 10.8587 14.0901 10.4697 13.9109C10.4545 13.9039 10.4394 13.8969 10.4243 13.89L10.2025 13.7879C10.1402 13.7592 10.0925 13.7372 10.051 13.719C10.0306 13.71 10.0139 13.7028 10 13.6971C9.98614 13.7028 9.9694 13.71 9.94902 13.719C9.90754 13.7372 9.85981 13.7592 9.79749 13.7879L9.57572 13.89C9.56056 13.8969 9.54549 13.9039 9.53033 13.9109C9.1413 14.0901 8.77842 14.2572 8.47647 14.3437C8.15377 14.4362 7.69887 14.4965 7.2917 14.1874C6.89592 13.887 6.81736 13.4413 6.80253 13.1084C6.78825 12.7879 6.82773 12.381 6.87099 11.9353L6.89999 11.636C6.91362 11.4953 6.92026 11.4224 6.92183 11.3706C6.9098 11.3546 6.89298 11.3334 6.86863 11.304C6.83895 11.2682 6.80401 11.2273 6.75867 11.1742L6.59725 10.9855C6.5868 10.9733 6.57637 10.9611 6.56598 10.9489C6.281 10.6158 6.01866 10.3091 5.84873 10.0392C5.66784 9.75181 5.48879 9.34809 5.63423 8.88037C5.78204 8.40502 6.16563 8.17953 6.48312 8.05444C6.77612 7.93897 7.16415 7.85125 7.57988 7.75726C7.59593 7.75362 7.61205 7.74998 7.62819 7.74633L7.86497 7.69275C7.93159 7.67768 7.98245 7.66616 8.02618 7.65551C8.05155 7.64932 8.07134 7.6442 8.087 7.63988C8.09697 7.62393 8.10936 7.60327 8.12516 7.57593C8.14865 7.53523 8.17516 7.48776 8.2094 7.42634L8.33135 7.2076C8.33926 7.19337 8.34716 7.17917 8.35507 7.16501C8.57014 6.77908 8.76791 6.42421 8.96102 6.17194Z" fill="black"/>
</svg>
