<svg width="19" height="22" viewBox="0 0 19 22" fill="none" xmlns="http://www.w3.org/2000/svg">
<path d="M5.47852 12V4.5C5.47852 4.10218 5.63655 3.72064 5.91786 3.43934C6.19916 3.15804 6.58069 3 6.97852 3C7.37634 3 7.75787 3.15804 8.03918 3.43934C8.32048 3.72064 8.47852 4.10218 8.47852 4.5V11" stroke="black" stroke-width="2" stroke-linecap="round" stroke-linejoin="round"/>
<path d="M8.47852 4.5V2.5C8.47852 2.30302 8.51731 2.10796 8.5927 1.92597C8.66808 1.74399 8.77857 1.57863 8.91786 1.43934C9.05714 1.30005 9.2225 1.18956 9.40449 1.11418C9.58648 1.0388 9.78153 1 9.97852 1C10.1755 1 10.3706 1.0388 10.5525 1.11418C10.7345 1.18956 10.8999 1.30005 11.0392 1.43934C11.1785 1.57863 11.289 1.74399 11.3643 1.92597C11.4397 2.10796 11.4785 2.30302 11.4785 2.5V11" stroke="black" stroke-width="2" stroke-linecap="round" stroke-linejoin="round"/>
<path d="M11.4785 4.5C11.4785 4.10218 11.6366 3.72064 11.9179 3.43934C12.1992 3.15804 12.5807 3 12.9785 3C13.3763 3 13.7579 3.15804 14.0392 3.43934C14.3205 3.72064 14.4785 4.10218 14.4785 4.5V11" stroke="black" stroke-width="2" stroke-linecap="round" stroke-linejoin="round"/>
<path d="M14.4787 6.5C14.4787 6.10218 14.6367 5.72064 14.918 5.43934C15.1993 5.15804 15.5809 5 15.9787 5C16.3765 5 16.7581 5.15804 17.0394 5.43934C17.3207 5.72064 17.4787 6.10218 17.4787 6.5V15C17.4787 16.5913 16.8466 18.1174 15.7213 19.2426C14.5961 20.3679 13.07 21 11.4787 21H9.4787H9.6867C8.69304 21.0002 7.71489 20.7535 6.84008 20.2823C5.96528 19.811 5.22121 19.1299 4.6747 18.3C4.60911 18.2002 4.54378 18.1002 4.4787 18C4.1667 17.521 3.0717 15.612 1.1927 12.272C1.00115 11.9315 0.949982 11.5298 1.05008 11.1522C1.15018 10.7745 1.39365 10.4509 1.7287 10.25C2.08558 10.0359 2.50377 9.94712 2.91686 9.99785C3.32995 10.0486 3.71424 10.2359 4.0087 10.53L5.4787 12" stroke="black" stroke-width="2" stroke-linecap="round" stroke-linejoin="round"/>
</svg>
